<svg width="67" height="67" viewBox="0 0 67 67" fill="none" xmlns="http://www.w3.org/2000/svg">
<g clip-path="url(#clip0_120_4604)">
<path d="M37.8284 50.1104V66.3021L45.2263 59.1833L52.7638 66.3021V50.1104C55.9742 47.8771 58.068 44.5271 58.3471 40.6187H66.3034V0.697906H0.699219V40.6187H32.2451C32.5242 44.5271 34.618 47.8771 37.8284 50.1104ZM49.9721 59.7417L45.2263 55.275L40.62 59.7417V51.6458C41.0388 51.7854 41.318 51.925 41.7367 52.0646H41.8763C42.2951 52.2042 42.7138 52.2042 43.1325 52.3437C43.2721 52.3437 43.5513 52.3437 43.6909 52.4833C43.97 52.4833 44.3888 52.4833 44.668 52.4833C44.8075 52.4833 44.9471 52.4833 45.0867 52.4833C45.2263 52.4833 45.3659 52.4833 45.5055 52.4833C45.7846 52.4833 46.2034 52.4833 46.4825 52.4833C46.6221 52.4833 46.9013 52.4833 47.0409 52.3437C47.4596 52.3437 47.8784 52.2042 48.4367 52.0646H48.5763C48.995 51.925 49.2742 51.7854 49.693 51.6458V59.7417H49.9721ZM50.67 48.1562C48.2971 49.5521 45.2263 49.9708 42.5742 49.2729C41.7367 48.9937 40.7596 48.7146 40.0617 48.1562C36.8513 46.2021 35.0367 42.8521 35.0367 39.2229C35.0367 33.5 39.643 28.7542 45.3659 28.7542C51.0888 28.7542 55.8346 33.3604 55.8346 39.2229C55.695 42.8521 53.7409 46.2021 50.67 48.1562ZM3.49089 3.48957H63.5117V37.8271H58.3471C58.3471 37.4083 58.2076 36.9896 58.2076 36.5708C58.2076 36.4312 58.2076 36.4312 58.2076 36.2917C58.068 36.0125 58.068 35.5937 57.9284 35.3146C57.9284 35.175 57.7888 35.0354 57.7888 34.8958C57.6492 34.6167 57.6492 34.3375 57.5096 34.1979C57.5096 34.0583 57.37 33.9187 57.2305 33.7792C57.0909 33.5 57.0909 33.3604 56.9513 33.0812C56.8117 32.9417 56.8117 32.8021 56.6721 32.6625C56.5325 32.5229 56.393 32.2437 56.2534 32.1042C56.1138 31.9646 56.1138 31.825 55.9742 31.6854C55.8346 31.5458 55.695 31.2667 55.5555 31.1271C55.4159 30.9875 55.2763 30.8479 55.1367 30.7083C54.9971 30.5687 54.8576 30.4292 54.718 30.15C54.5784 30.0104 54.4388 29.8708 54.2992 29.7312C54.1596 29.5917 54.0201 29.4521 53.7409 29.3125C53.6013 29.1729 53.4617 29.0333 53.3221 28.8937C53.1825 28.7542 52.9034 28.6146 52.7638 28.475C52.6242 28.3354 52.4846 28.1958 52.3451 28.1958C52.2055 28.0562 51.9263 27.9167 51.7867 27.7771C51.6471 27.6375 51.5075 27.6375 51.368 27.4979C51.2284 27.3583 50.9492 27.3583 50.8096 27.2187C50.6701 27.0792 50.5305 27.0792 50.2513 26.9396C49.9721 26.8 49.8326 26.8 49.5534 26.6604C49.4138 26.6604 49.2742 26.5208 48.995 26.5208C48.8555 26.5208 48.5763 26.5208 48.2971 26.3812C48.1575 26.3812 48.018 26.2417 47.7388 26.2417C47.4596 26.2417 47.1805 26.1021 46.9013 26.1021C46.7617 26.1021 46.6221 26.1021 46.4825 26.1021C46.0638 26.1021 45.6451 26.1021 45.2263 26.1021C44.8076 26.1021 44.3888 26.1021 43.9701 26.1021C43.8305 26.1021 43.6909 26.1021 43.5513 26.1021C43.2721 26.1021 42.993 26.2417 42.7138 26.2417C42.5742 26.2417 42.4346 26.3812 42.1555 26.3812C41.8763 26.3812 41.5971 26.5208 41.4576 26.5208C41.318 26.5208 41.1784 26.6604 40.8992 26.6604C40.62 26.8 40.4805 26.8 40.2013 26.9396C40.0617 26.9396 39.9221 27.0792 39.643 27.2187C39.3638 27.3583 39.2242 27.3583 39.0846 27.4979C38.945 27.6375 38.8055 27.6375 38.6659 27.7771C38.5263 27.9167 38.2471 28.0562 38.1075 28.1958C37.968 28.3354 37.8284 28.3354 37.6888 28.475C37.5492 28.6146 37.2701 28.7542 37.1305 28.8937C36.9909 29.0333 36.8513 29.1729 36.7117 29.3125C36.5721 29.4521 36.4325 29.5917 36.1534 29.7312C36.0138 29.8708 35.8742 30.0104 35.7346 30.15C35.5951 30.2896 35.4555 30.4292 35.3159 30.7083C35.1763 30.8479 35.0367 30.9875 34.8971 31.1271C34.7575 31.2667 34.618 31.5458 34.4784 31.6854C34.3388 31.825 34.1992 31.9646 34.1992 32.1042C34.0596 32.2437 33.9201 32.5229 33.7805 32.6625C33.6409 32.8021 33.6409 32.9417 33.5013 33.0812C33.3617 33.3604 33.2221 33.5 33.2221 33.7792C33.0826 33.9187 33.0826 34.0583 32.943 34.1979C32.8034 34.4771 32.8034 34.7562 32.6638 34.8958C32.6638 35.0354 32.5242 35.175 32.5242 35.3146C32.3846 35.5937 32.3846 35.8729 32.2451 36.2917C32.2451 36.4312 32.2451 36.4312 32.1055 36.5708C31.9659 36.9896 31.9659 37.4083 31.9659 37.8271H3.49089V3.48957Z" fill="#B58569"/>
<path d="M45.224 31.546C41.0365 31.546 37.5469 35.0355 37.5469 39.223C37.5469 41.8751 38.9427 44.3876 41.3156 45.7835C42.5719 46.4814 43.8281 46.9001 45.224 46.9001C46.6198 46.9001 48.0156 46.4814 49.1323 45.7835C51.3656 44.3876 52.901 41.8751 52.901 39.223C52.901 35.0355 49.551 31.546 45.224 31.546ZM47.876 43.4105C46.3406 44.248 44.3865 44.248 42.851 43.4105C41.3156 42.573 40.4781 40.898 40.4781 39.223C40.4781 36.571 42.7115 34.3376 45.3635 34.3376C48.0156 34.3376 50.249 36.571 50.249 39.223C50.1094 40.898 49.2719 42.573 47.876 43.4105Z" fill="#B58569"/>
<path d="M30.7073 9.77084H10.3281V12.5625H30.7073V9.77084Z" fill="#B58569"/>
<path d="M30.7073 18.1458H10.3281V20.9375H30.7073V18.1458Z" fill="#B58569"/>
<path d="M30.7073 26.3811H10.3281V29.1728H30.7073V26.3811Z" fill="#B58569"/>
</g>
<defs>
<clipPath id="clip0_120_4604">
<rect width="67" height="67" fill="white"/>
</clipPath>
</defs>
</svg>
