<svg width="46" height="47" viewBox="0 0 46 47" fill="none" xmlns="http://www.w3.org/2000/svg">
<path d="M44.4929 33.6024C45.0529 32.981 45.4206 32.2105 45.5514 31.3843C45.6822 30.5581 45.5705 29.7117 45.2298 28.9478C44.8891 28.1838 44.3341 27.5351 43.632 27.0803C42.93 26.6255 42.111 26.3842 41.2746 26.3856H31.5335C30.0737 22.4289 27.4676 18.9972 24.048 16.5287C24.6005 16.0055 25.0049 15.3457 25.2206 14.6161C25.4362 13.8864 25.4554 13.1127 25.2761 12.3733C25.0968 11.6338 24.7254 10.9548 24.1995 10.4049C23.6736 9.85506 23.0119 9.45379 22.2812 9.24171C22.8784 8.06758 23.2036 6.77407 23.2327 5.45711C23.2327 3.57047 22.3891 0.405396 16.7377 0.405396C11.0862 0.405396 10.2426 3.57047 10.2426 5.45711C10.2717 6.77407 10.5969 8.06758 11.1941 9.24171C10.462 9.45416 9.79912 9.85653 9.27277 10.408C8.74641 10.9594 8.37533 11.6403 8.19719 12.3816C8.01905 13.1228 8.04019 13.898 8.25848 14.6284C8.47676 15.3588 8.88441 16.0184 9.44005 16.5404C6.74589 18.5227 4.54002 21.0941 2.99069 24.0586C1.44135 27.023 0.589464 30.302 0.5 33.6457C0.5 41.7526 6.57009 46.5925 16.7377 46.5925C19.2108 46.6255 21.6744 46.2773 24.0415 45.5599C24.8219 46.2266 25.8147 46.5928 26.8411 46.5925H41.2746C42.111 46.5939 42.93 46.3526 43.632 45.8978C44.3341 45.4431 44.8891 44.7943 45.2298 44.0304C45.5705 43.2664 45.6822 42.42 45.5514 41.5938C45.4206 40.7676 45.0529 39.9971 44.4929 39.3758C45.2084 38.5846 45.6046 37.5558 45.6046 36.4891C45.6046 35.4223 45.2084 34.3936 44.4929 33.6024ZM16.7377 3.29209C20.346 3.29209 20.346 4.70055 20.346 5.45711C20.2852 6.76784 19.8216 8.02791 19.0183 9.06548H14.457C13.6537 8.02791 13.1901 6.76784 13.1293 5.45711C13.1293 4.70055 13.1293 3.29209 16.7377 3.29209ZM12.4076 11.9522H21.0677C21.4505 11.9522 21.8176 12.1042 22.0883 12.3749C22.359 12.6456 22.511 13.0127 22.511 13.3955C22.511 13.7783 22.359 14.1454 22.0883 14.4161C21.8176 14.6868 21.4505 14.8389 21.0677 14.8389H12.4076C12.0248 14.8389 11.6577 14.6868 11.387 14.4161C11.1163 14.1454 10.9643 13.7783 10.9643 13.3955C10.9643 13.0127 11.1163 12.6456 11.387 12.3749C11.6577 12.1042 12.0248 11.9522 12.4076 11.9522ZM22.511 30.7157C22.5114 31.7824 22.9075 32.811 23.6228 33.6024C22.9072 34.3936 22.511 35.4223 22.511 36.4891C22.511 37.5558 22.9072 38.5846 23.6228 39.3758C23.1879 39.8578 22.8678 40.432 22.6863 41.0553C22.5049 41.6786 22.4667 42.3349 22.5748 42.975C20.671 43.4809 18.7074 43.7268 16.7377 43.7058C11.7515 43.7058 3.38669 42.3989 3.38669 33.6457C3.38669 27.1412 7.87672 19.9236 13.2375 17.7256H20.2534C23.5401 19.0823 26.5893 22.3532 28.4066 26.3856H26.8411C25.6931 26.3869 24.5924 26.8435 23.7807 27.6553C22.9689 28.467 22.5123 29.5677 22.511 30.7157ZM41.2746 43.7058H26.8411C26.4583 43.7058 26.0912 43.5537 25.8205 43.2831C25.5498 43.0124 25.3977 42.6453 25.3977 42.2625C25.3977 41.8797 25.5498 41.5125 25.8205 41.2419C26.0912 40.9712 26.4583 40.8191 26.8411 40.8191H41.2746C41.6574 40.8191 42.0245 40.9712 42.2952 41.2419C42.5658 41.5125 42.7179 41.8797 42.7179 42.2625C42.7179 42.6453 42.5658 43.0124 42.2952 43.2831C42.0245 43.5537 41.6574 43.7058 41.2746 43.7058ZM41.2746 37.9324H26.8411C26.4583 37.9324 26.0912 37.7803 25.8205 37.5097C25.5498 37.239 25.3977 36.8719 25.3977 36.4891C25.3977 36.1063 25.5498 35.7391 25.8205 35.4685C26.0912 35.1978 26.4583 35.0457 26.8411 35.0457H41.2746C41.6574 35.0457 42.0245 35.1978 42.2952 35.4685C42.5658 35.7391 42.7179 36.1063 42.7179 36.4891C42.7179 36.8719 42.5658 37.239 42.2952 37.5097C42.0245 37.7803 41.6574 37.9324 41.2746 37.9324ZM41.2746 32.159H26.8411C26.4583 32.159 26.0912 32.007 25.8205 31.7363C25.5498 31.4656 25.3977 31.0985 25.3977 30.7157C25.3977 30.3329 25.5498 29.9658 25.8205 29.6951C26.0912 29.4244 26.4583 29.2723 26.8411 29.2723H41.2746C41.6574 29.2723 42.0245 29.4244 42.2952 29.6951C42.5658 29.9658 42.7179 30.3329 42.7179 30.7157C42.7179 31.0985 42.5658 31.4656 42.2952 31.7363C42.0245 32.007 41.6574 32.159 41.2746 32.159Z" fill="#3A3A3A"/>
<path d="M44.4929 33.6024C45.0529 32.981 45.4206 32.2105 45.5514 31.3843C45.6822 30.5581 45.5705 29.7117 45.2298 28.9478C44.8891 28.1838 44.3341 27.5351 43.632 27.0803C42.93 26.6255 42.111 26.3842 41.2746 26.3856H31.5335C30.0737 22.4289 27.4676 18.9972 24.048 16.5287C24.6005 16.0055 25.0049 15.3457 25.2206 14.6161C25.4362 13.8864 25.4554 13.1127 25.2761 12.3733C25.0968 11.6338 24.7254 10.9548 24.1995 10.4049C23.6736 9.85506 23.0119 9.45379 22.2812 9.24171C22.8784 8.06758 23.2036 6.77407 23.2327 5.45711C23.2327 3.57047 22.3891 0.405396 16.7377 0.405396C11.0862 0.405396 10.2426 3.57047 10.2426 5.45711C10.2717 6.77407 10.5969 8.06758 11.1941 9.24171C10.462 9.45416 9.79912 9.85653 9.27277 10.408C8.74641 10.9594 8.37533 11.6403 8.19719 12.3816C8.01905 13.1228 8.04019 13.898 8.25848 14.6284C8.47676 15.3588 8.88441 16.0184 9.44005 16.5404C6.74589 18.5227 4.54002 21.0941 2.99069 24.0586C1.44135 27.023 0.589464 30.302 0.5 33.6457C0.5 41.7526 6.57009 46.5925 16.7377 46.5925C19.2108 46.6255 21.6744 46.2773 24.0415 45.5599C24.8219 46.2266 25.8147 46.5928 26.8411 46.5925H41.2746C42.111 46.5939 42.93 46.3526 43.632 45.8978C44.3341 45.4431 44.8891 44.7943 45.2298 44.0304C45.5705 43.2664 45.6822 42.42 45.5514 41.5938C45.4206 40.7676 45.0529 39.9971 44.4929 39.3758C45.2084 38.5846 45.6046 37.5558 45.6046 36.4891C45.6046 35.4223 45.2084 34.3936 44.4929 33.6024ZM16.7377 3.29209C20.346 3.29209 20.346 4.70055 20.346 5.45711C20.2852 6.76784 19.8216 8.02791 19.0183 9.06548H14.457C13.6537 8.02791 13.1901 6.76784 13.1293 5.45711C13.1293 4.70055 13.1293 3.29209 16.7377 3.29209ZM12.4076 11.9522H21.0677C21.4505 11.9522 21.8176 12.1042 22.0883 12.3749C22.359 12.6456 22.511 13.0127 22.511 13.3955C22.511 13.7783 22.359 14.1454 22.0883 14.4161C21.8176 14.6868 21.4505 14.8389 21.0677 14.8389H12.4076C12.0248 14.8389 11.6577 14.6868 11.387 14.4161C11.1163 14.1454 10.9643 13.7783 10.9643 13.3955C10.9643 13.0127 11.1163 12.6456 11.387 12.3749C11.6577 12.1042 12.0248 11.9522 12.4076 11.9522ZM22.511 30.7157C22.5114 31.7824 22.9075 32.811 23.6228 33.6024C22.9072 34.3936 22.511 35.4223 22.511 36.4891C22.511 37.5558 22.9072 38.5846 23.6228 39.3758C23.1879 39.8578 22.8678 40.432 22.6863 41.0553C22.5049 41.6786 22.4667 42.3349 22.5748 42.975C20.671 43.4809 18.7074 43.7268 16.7377 43.7058C11.7515 43.7058 3.38669 42.3989 3.38669 33.6457C3.38669 27.1412 7.87672 19.9236 13.2375 17.7256H20.2534C23.5401 19.0823 26.5893 22.3532 28.4066 26.3856H26.8411C25.6931 26.3869 24.5924 26.8435 23.7807 27.6553C22.9689 28.467 22.5123 29.5677 22.511 30.7157ZM41.2746 43.7058H26.8411C26.4583 43.7058 26.0912 43.5537 25.8205 43.2831C25.5498 43.0124 25.3977 42.6453 25.3977 42.2625C25.3977 41.8797 25.5498 41.5125 25.8205 41.2419C26.0912 40.9712 26.4583 40.8191 26.8411 40.8191H41.2746C41.6574 40.8191 42.0245 40.9712 42.2952 41.2419C42.5658 41.5125 42.7179 41.8797 42.7179 42.2625C42.7179 42.6453 42.5658 43.0124 42.2952 43.2831C42.0245 43.5537 41.6574 43.7058 41.2746 43.7058ZM41.2746 37.9324H26.8411C26.4583 37.9324 26.0912 37.7803 25.8205 37.5097C25.5498 37.239 25.3977 36.8719 25.3977 36.4891C25.3977 36.1063 25.5498 35.7391 25.8205 35.4685C26.0912 35.1978 26.4583 35.0457 26.8411 35.0457H41.2746C41.6574 35.0457 42.0245 35.1978 42.2952 35.4685C42.5658 35.7391 42.7179 36.1063 42.7179 36.4891C42.7179 36.8719 42.5658 37.239 42.2952 37.5097C42.0245 37.7803 41.6574 37.9324 41.2746 37.9324ZM41.2746 32.159H26.8411C26.4583 32.159 26.0912 32.007 25.8205 31.7363C25.5498 31.4656 25.3977 31.0985 25.3977 30.7157C25.3977 30.3329 25.5498 29.9658 25.8205 29.6951C26.0912 29.4244 26.4583 29.2723 26.8411 29.2723H41.2746C41.6574 29.2723 42.0245 29.4244 42.2952 29.6951C42.5658 29.9658 42.7179 30.3329 42.7179 30.7157C42.7179 31.0985 42.5658 31.4656 42.2952 31.7363C42.0245 32.007 41.6574 32.159 41.2746 32.159Z" fill="#3A3A3A"/>
<path d="M15.6426 38.0952L12.4584 32.5406V31.2316H13.5198C13.9444 31.2316 14.3159 31.1726 14.6343 31.0547C14.9645 30.9249 15.2357 30.7421 15.448 30.5063C15.6721 30.2704 15.8254 29.9874 15.908 29.6572H12.4584V28.3481H15.8903C15.8195 28.0415 15.6957 27.7702 15.5188 27.5344C15.3537 27.2985 15.1296 27.1157 14.8466 26.986C14.5753 26.8445 14.2451 26.7737 13.8559 26.7737H12.4584V25.4647H20.4366V26.7737H17.6593C17.8597 26.9978 18.0248 27.2395 18.1546 27.499C18.2961 27.7584 18.3904 28.0415 18.4376 28.3481H20.4366V29.6572H18.473C18.3551 30.5299 18.0189 31.2139 17.4647 31.7092C16.9104 32.1927 16.1969 32.5229 15.3242 32.6998L18.7914 38.0952H15.6426Z" fill="#3A3A3A"/>
</svg>
