<svg width="63" height="64" viewBox="0 0 63 64" fill="none" xmlns="http://www.w3.org/2000/svg">
<path fill-rule="evenodd" clip-rule="evenodd" d="M32.3638 33.3253V18.887L44.8689 11.6692V26.1055L32.3638 33.3253ZM17.8324 11.6692L20.9586 13.4749V19.4967C20.958 19.6752 21.0048 19.8507 21.094 20.0054C21.1832 20.16 21.3118 20.2883 21.4666 20.3772L25.6808 22.8106C25.8354 22.8994 26.0106 22.9462 26.1889 22.9462C26.3672 22.9462 26.5424 22.8994 26.697 22.8106C26.8518 22.7219 26.9803 22.5937 27.0696 22.4392C27.1588 22.2847 27.2055 22.1093 27.205 21.9308V17.0811L30.3312 18.8869V33.325L17.8322 26.1054L17.8324 11.6692ZM31.3477 2.69027L18.8486 9.90876L21.9749 11.7145L34.4799 4.49667L31.3477 2.69027ZM24.0072 12.8885L26.189 14.1486L38.6941 6.93014L36.5124 5.66889L24.0072 12.8885ZM22.9911 14.6478V18.9104L25.1729 20.1699V15.9084L22.9911 14.6478ZM31.3477 17.1266L43.8527 9.90876L40.7265 8.10299L28.2214 15.3221L31.3477 17.1266ZM46.9013 26.6925V9.90876C46.9019 9.73022 46.8551 9.55471 46.7659 9.40006C46.6767 9.24542 46.5481 9.11715 46.3932 9.0283L31.8558 0.636318C31.545 0.454561 31.1564 0.454561 30.8397 0.636318L16.3082 9.02817C16.1533 9.11705 16.0248 9.24532 15.9355 9.39995C15.8463 9.55459 15.7995 9.73009 15.8 9.90863V26.6923C15.7995 26.8708 15.8462 27.0463 15.9355 27.2008C16.0247 27.3554 16.1533 27.4836 16.3082 27.5723L30.8397 35.9643C31.0011 36.0546 31.1744 36.0999 31.3477 36.0999C31.5261 36.1006 31.7015 36.0537 31.8558 35.9643L46.3932 27.5723C46.5481 27.4836 46.6767 27.3554 46.7659 27.2009C46.8551 27.0463 46.9018 26.8709 46.9013 26.6925ZM26.7509 58.8703C26.9542 59.3885 26.7032 59.9761 26.1831 60.1824C25.669 60.388 25.0771 60.1351 24.8739 59.6169C24.6707 59.0987 24.9218 58.5116 25.4358 58.3049C25.956 58.0992 26.5477 58.3532 26.7509 58.8703ZM27.7372 61.1819C27.7811 61.1385 27.8158 61.0868 27.8394 61.0298C27.8631 60.9729 27.8751 60.9118 27.8748 60.8501L27.8448 57.6013C27.8448 57.4352 27.7551 57.3246 27.7074 57.2738C27.6536 57.2217 27.5459 57.1362 27.3785 57.1381L10.4979 57.2828C10.4364 57.2829 10.3756 57.2955 10.3192 57.3198C10.2627 57.344 10.2117 57.3794 10.1692 57.4239C10.1254 57.4671 10.0906 57.5187 10.067 57.5756C10.0434 57.6324 10.0314 57.6934 10.0316 57.755L10.0615 61.0044C10.0615 61.1707 10.1512 61.2812 10.199 61.332C10.2529 61.3839 10.3663 61.4689 10.5337 61.4676L27.4084 61.323C27.4698 61.3227 27.5306 61.3101 27.5871 61.2859C27.6436 61.2616 27.6947 61.2263 27.7372 61.1819ZM14.1681 52.292C14.2628 52.3861 14.3379 52.4979 14.3892 52.6211C14.4405 52.7443 14.4669 52.8764 14.467 53.0099V55.2161L24.348 55.1306L24.3599 46.569C24.3659 44.6561 24.1686 42.7039 22.7101 41.393C22.2319 40.962 21.664 40.4796 20.9945 39.9208C19.0876 38.3128 16.7205 36.3151 14.7241 33.9689C13.9291 33.2892 12.8291 33.2881 12.1417 33.9737C11.3108 34.8075 11.5679 35.7 12.0043 36.3581C13.1042 37.6205 14.2041 38.6911 15.3637 39.8143C15.8598 40.2991 16.38 40.8006 16.9119 41.3356C17.3064 41.7319 17.3064 42.3757 16.9119 42.7726C16.5174 43.1695 15.8718 43.1695 15.4713 42.7726C14.9513 42.2491 14.4371 41.7523 13.947 41.2723C12.8411 40.2 11.7832 39.1754 10.7192 37.9776C10.6474 37.9219 9.95403 37.0911 9.73887 36.8215C8.52537 35.3253 7.93361 33.7138 7.93958 31.8947L7.98734 20.2314C7.99928 16.9479 7.07271 14.9741 5.51856 14.9484H5.48871C4.43068 14.9484 3.33683 15.8582 3.31282 16.7674L2.70315 38.2406C2.65527 39.9083 3.24703 41.3675 4.46053 42.5791L14.1681 52.292ZM29.1301 55.8241C28.6578 55.3596 28.0361 55.1056 27.3786 55.1056H27.3607L26.3804 55.114L26.3924 46.5727C26.3983 44.303 26.1234 41.732 24.0731 39.8825C23.571 39.4306 22.9552 38.9135 22.3038 38.366C20.4448 36.7951 18.1195 34.8392 16.2306 32.6C16.2007 32.5642 16.1648 32.5313 16.1349 32.5008C14.5448 31.068 12.1599 31.083 10.7074 32.5373C10.489 32.7533 10.2946 32.9922 10.1275 33.2498C10.0235 32.8083 9.9714 32.3561 9.97219 31.9025L10.02 20.2385C10.0438 13.5119 6.60682 12.9339 5.54879 12.9166H5.48896C3.33111 12.9166 1.33457 14.7098 1.28072 16.7105L0.671048 38.1819C0.611224 40.3996 1.42424 42.417 3.02018 44.016L12.4349 53.4312V55.2334L10.4803 55.2502C9.81076 55.2568 9.18915 55.5222 8.71691 55.9998C8.25064 56.4762 7.99356 57.1056 7.99966 57.7715L8.02951 61.0214C8.03548 61.6874 8.29853 62.312 8.77674 62.7806C9.24897 63.2456 9.87058 63.4997 10.5281 63.4997H10.552L27.4267 63.3551C28.8074 63.342 29.9193 62.2116 29.9074 60.8337L29.8775 57.5832C29.8712 56.9181 29.6083 56.2928 29.1301 55.8241ZM35.9504 58.8703C36.1536 58.3532 36.7455 58.0992 37.2595 58.3049C37.7795 58.5116 38.0306 59.0987 37.8274 59.6169C37.6182 60.1351 37.0324 60.388 36.5123 60.1824C35.9982 59.9761 35.7412 59.3885 35.9504 58.8703ZM38.3533 55.1308L48.2342 55.2162V53.01C48.2349 52.7417 48.3399 52.4843 48.5271 52.2921L58.2406 42.5792C59.4541 41.3676 60.0459 39.9085 59.998 38.2407L59.3882 16.7675C59.3643 15.8584 58.2705 14.9486 57.2125 14.9486H57.1826C55.6225 14.9742 54.7019 16.948 54.7138 20.2315L54.7556 31.8948C54.7676 33.7138 54.1758 35.3254 52.9623 36.8216C52.7412 37.0911 52.0538 37.9221 51.976 37.9777C50.912 39.1756 49.86 40.2002 48.7542 41.2725C48.2581 41.7524 47.75 42.2492 47.2239 42.7728C46.8294 43.1697 46.1838 43.1685 45.7893 42.7728C45.6941 42.6788 45.6186 42.567 45.567 42.4436C45.5155 42.3203 45.4889 42.1879 45.4889 42.0542C45.4889 41.9205 45.5155 41.7882 45.567 41.6649C45.6186 41.5415 45.6941 41.4296 45.7893 41.3357C46.3212 40.8007 46.8413 40.2993 47.3375 39.8145C48.4971 38.6913 49.5969 37.6207 50.6969 36.3583C51.1272 35.7001 51.3902 34.8077 50.5594 33.9738C49.872 33.2882 48.7721 33.2893 47.9771 33.969C45.9806 36.3152 43.6076 38.3129 41.7007 39.9196C41.0372 40.4798 40.4633 40.9622 39.9851 41.3931C38.5326 42.704 38.3353 44.6563 38.3353 46.5691L38.3533 55.1308ZM52.5321 57.4238C52.4896 57.3794 52.4385 57.344 52.382 57.3197C52.3255 57.2955 52.2647 57.2829 52.2033 57.2826L35.3226 57.138C35.1552 57.138 35.0417 57.2228 34.9938 57.2736C34.9052 57.36 34.8538 57.4775 34.8504 57.6012L34.8265 60.85C34.8206 61.0167 34.9102 61.1297 34.958 61.1817C35.0117 61.2338 35.1194 61.3216 35.2868 61.3228L52.1674 61.4675C52.3348 61.4688 52.4484 61.3838 52.4963 61.3319C52.55 61.2811 52.6397 61.1704 52.6397 61.0043L52.6695 57.7549C52.6699 57.6933 52.6579 57.6323 52.6343 57.5754C52.6107 57.5186 52.5759 57.467 52.5321 57.4238ZM59.6812 44.0161C61.2772 42.4171 62.0902 40.3997 62.0304 38.1821L61.4207 16.7106C61.361 14.7088 59.3643 12.9167 57.2125 12.9167H57.1526C56.0946 12.934 52.6575 13.512 52.6815 20.2386L52.7233 31.9026C52.729 32.3561 52.6788 32.8087 52.5739 33.25C52.4068 32.9923 52.2124 32.7534 51.9941 32.5374C50.5415 31.0831 48.1564 31.0681 46.5665 32.501C46.5318 32.5312 46.4998 32.5644 46.4708 32.6002C44.5759 34.8393 42.2566 36.7952 40.3917 38.3661C39.7401 38.9137 39.1304 39.4307 38.6283 39.8827C36.5781 41.7321 36.3031 44.303 36.3031 46.5728L36.321 55.1141L35.3407 55.1057H35.3168C34.9929 55.1049 34.672 55.1679 34.3725 55.2912C34.073 55.4145 33.8008 55.5956 33.5714 55.8243C33.0932 56.2929 32.8241 56.9181 32.8182 57.5834L32.7942 60.834C32.7822 62.2118 33.8941 63.3421 35.2689 63.3553L52.1495 63.5H52.1734C52.831 63.5 53.4526 63.246 53.9248 62.7808C54.403 62.3122 54.6661 61.6875 54.672 61.0217L54.7019 57.7718C54.7079 57.1058 54.4508 56.4765 53.9787 56C53.7499 55.7651 53.4768 55.5778 53.1751 55.4491C52.8734 55.3204 52.5492 55.2529 52.2213 55.2504L50.2607 55.2336V53.4314L59.6812 44.0161Z" fill="#996830"/>
</svg>
