<svg width="49" height="49" viewBox="0 0 49 49" fill="none" xmlns="http://www.w3.org/2000/svg">
<g clip-path="url(#clip0_120_3459)">
<path d="M44.8838 25.3811V3.52332C44.8838 2.74352 44.2516 2.11133 43.4718 2.11133H5.64156C4.86176 2.11133 4.22956 2.74352 4.22956 3.52332V27.1236C3.54842 27.2228 2.88252 27.4873 2.29344 27.9246C0.43639 29.2414 -0.00283343 32.1884 1.55271 34.0058L7.9126 41.7159C11.8494 46.3234 16.0315 46.8879 22.2486 46.8879C27.5837 46.8879 29.9689 46.9115 34.6186 45.852L39.1462 44.7691C39.8804 45.7943 41.0458 46.4584 42.3561 46.4584H44.5865C46.8025 46.4584 48.6054 44.5591 48.6054 42.2245V29.6023C48.6055 27.3732 46.9614 25.5421 44.8838 25.3811ZM38.5372 28.2857L36.6559 27.3302C33.5626 25.7688 29.9862 25.711 26.844 27.1718C25.9868 27.509 24.117 28.6403 23.1471 28.6025H16.6189C14.4534 28.6025 12.6916 30.3642 12.6916 32.5297V33.5594C12.6795 33.5466 12.6668 33.5344 12.6548 33.5215L7.9929 28.4612C7.71078 28.155 7.39384 27.8987 7.05364 27.6931V13.6844H18.6087V18.8604C18.6087 19.6402 19.2409 20.2724 20.0207 20.2724H28.9305C29.7103 20.2724 30.3425 19.6402 30.3425 18.8604V13.6844H42.0599V25.381C40.4102 25.5085 39.0345 26.6887 38.5372 28.2857ZM21.4326 13.6844H27.5184V17.4484H21.4326V13.6844ZM42.0598 10.8604H30.3425V4.93531H42.0599V10.8604H42.0598ZM27.5185 4.93531V10.8605H21.4327V4.93531H27.5185ZM18.6086 4.93531V10.8605H7.05355V4.93531H18.6086ZM33.9633 43.105C29.668 44.0888 27.0811 44.049 22.2992 44.049C16.463 44.049 13.643 43.9547 10.0912 39.9188L3.73132 32.2087C2.62507 30.7682 4.62878 29.0677 5.91595 30.3744L10.5779 35.4348C11.81 36.7349 13.3604 37.4504 15.2714 37.4925H28.1966C28.9764 37.4925 29.6086 36.8603 29.6086 36.0805C29.6086 35.3007 28.9764 34.6685 28.1966 34.6685H15.5155V32.5295C15.5155 31.9212 16.0104 31.4263 16.6188 31.4263H23.1471C24.6178 31.5316 26.7406 30.3035 28.0345 29.7324C30.3878 28.6382 33.0665 28.6815 35.3802 29.8493L38.3373 31.3513V42.0587L33.9633 43.105ZM45.7816 42.2244C45.7816 43.0019 45.2455 43.6343 44.5865 43.6343H42.3562C41.6972 43.6343 41.1612 43.0019 41.1612 42.2244V29.6023C41.1612 28.8249 41.6973 28.1923 42.3562 28.1923H44.5865C45.2455 28.1923 45.7816 28.8248 45.7816 29.6023V42.2244Z" fill="#3A3A3A"/>
</g>
<defs>
<clipPath id="clip0_120_3459">
<rect width="48" height="48" fill="white" transform="translate(0.605469 0.5)"/>
</clipPath>
</defs>
</svg>
