<svg width="80" height="81" viewBox="0 0 80 81" fill="none" xmlns="http://www.w3.org/2000/svg">
<g clip-path="url(#clip0_120_3727)">
<path d="M68.7361 51.5548C67.3861 51.5558 66.0661 51.1564 64.9431 50.4071C63.8201 49.6577 62.9445 48.5922 62.4272 47.3452C61.9099 46.0982 61.774 44.7258 62.0368 43.4015C62.2996 42.0773 62.9492 40.8608 63.9035 39.9058C64.8577 38.9508 66.0738 38.3003 67.3978 38.0366C68.7219 37.7728 70.0944 37.9077 71.3418 38.4241C72.5891 38.9405 73.6553 39.8153 74.4055 40.9377C75.1556 42.0602 75.556 43.3799 75.556 44.7299C75.5552 46.5389 74.8365 48.2736 73.5579 49.5531C72.2792 50.8327 70.5451 51.5526 68.7361 51.5548ZM68.7361 40.3947C67.8785 40.3937 67.0398 40.6471 66.3262 41.1229C65.6126 41.5987 65.0562 42.2754 64.7273 43.0675C64.3984 43.8595 64.3119 44.7314 64.4786 45.5727C64.6453 46.4139 65.0578 47.1869 65.6639 47.7937C66.27 48.4005 67.0424 48.8139 67.8835 48.9815C68.7246 49.1492 69.5966 49.0637 70.389 48.7357C71.1815 48.4077 71.8589 47.852 72.3354 47.139C72.812 46.426 73.0664 45.5876 73.0664 44.7299C73.066 43.5812 72.6098 42.4795 71.7979 41.6667C70.9861 40.8539 69.8849 40.3964 68.7361 40.3947Z" fill="#996830"/>
<path d="M32.7651 51.5548C31.415 51.5561 30.0948 51.157 28.9716 50.4079C27.8484 49.6587 26.9726 48.5933 26.455 47.3463C25.9374 46.0994 25.8013 44.7269 26.0639 43.4026C26.3265 42.0782 26.976 40.8615 27.9302 39.9064C28.8844 38.9512 30.1005 38.3006 31.4246 38.0367C32.7487 37.7728 34.1212 37.9076 35.3687 38.4239C36.6162 38.9403 37.6825 39.8151 38.4327 40.9376C39.1829 42.06 39.5834 43.3798 39.5834 44.7299C39.5821 46.5385 38.8635 48.2726 37.5853 49.5521C36.3071 50.8315 34.5736 51.5518 32.7651 51.5548ZM32.7651 40.3947C31.9074 40.3934 31.0686 40.6465 30.3548 41.1221C29.641 41.5976 29.0843 42.2743 28.7551 43.0663C28.426 43.8584 28.3392 44.7302 28.5057 45.5716C28.6722 46.413 29.0846 47.1861 29.6906 47.7931C30.2967 48.4001 31.0691 48.8136 31.9103 48.9814C32.7514 49.1492 33.6234 49.0638 34.416 48.7358C35.2085 48.4079 35.886 47.8523 36.3627 47.1392C36.8393 46.4261 37.0938 45.5877 37.0938 44.7299C37.0929 43.5816 36.6368 42.4804 35.8254 41.6678C35.014 40.8551 33.9135 40.3973 32.7651 40.3947Z" fill="#996830"/>
<path d="M77.7097 45.9746H74.3056C73.9755 45.9746 73.6588 45.8435 73.4254 45.61C73.1919 45.3766 73.0608 45.06 73.0608 44.7298C73.0608 44.3997 73.1919 44.083 73.4254 43.8496C73.6588 43.6161 73.9755 43.485 74.3056 43.485H77.3579V36.8842C77.3571 35.9917 77.1286 35.1143 76.694 34.3348L69.9554 22.2535C69.8978 22.1504 69.8138 22.0645 69.712 22.0047C69.6102 21.9449 69.4942 21.9133 69.3761 21.9132H60.1927V43.49H63.1571C63.4872 43.49 63.8038 43.6211 64.0373 43.8546C64.2707 44.088 64.4019 44.4046 64.4019 44.7348C64.4019 45.0649 64.2707 45.3816 64.0373 45.615C63.8038 45.8485 63.4872 45.9796 63.1571 45.9796H58.9479C58.6178 45.9796 58.3012 45.8485 58.0677 45.615C57.8343 45.3816 57.7031 45.0649 57.7031 44.7348V20.6684C57.7031 20.3383 57.8343 20.0217 58.0677 19.7882C58.3012 19.5548 58.6178 19.4236 58.9479 19.4236H69.3761C69.9377 19.4233 70.4892 19.573 70.9736 19.8572C71.4579 20.1414 71.8576 20.5498 72.1313 21.0402L78.8682 33.1232C79.5087 34.2733 79.8452 35.5678 79.8458 36.8842V43.8385C79.845 44.4048 79.6196 44.9476 79.2192 45.348C78.8188 45.7484 78.276 45.9737 77.7097 45.9746Z" fill="#996830"/>
<path d="M27.1918 45.9746H15.2565C14.9264 45.9746 14.6098 45.8435 14.3763 45.61C14.1429 45.3766 14.0117 45.06 14.0117 44.7298V35.1564C14.0117 34.8263 14.1429 34.5096 14.3763 34.2762C14.6098 34.0427 14.9264 33.9116 15.2565 33.9116C15.5867 33.9116 15.9033 34.0427 16.1367 34.2762C16.3702 34.5096 16.5013 34.8263 16.5013 35.1564V43.485H27.1918C27.5219 43.485 27.8386 43.6162 28.072 43.8496C28.3055 44.0831 28.4366 44.3997 28.4366 44.7298C28.4366 45.06 28.3055 45.3766 28.072 45.61C27.8386 45.8435 27.5219 45.9746 27.1918 45.9746Z" fill="#996830"/>
<path d="M15.2565 30.74C14.9264 30.74 14.6098 30.6088 14.3763 30.3754C14.1429 30.1419 14.0117 29.8253 14.0117 29.4952V21.1367C14.0117 20.8065 14.1429 20.4899 14.3763 20.2564C14.6098 20.023 14.9264 19.8918 15.2565 19.8918C15.5867 19.8918 15.9033 20.023 16.1367 20.2564C16.3702 20.4899 16.5013 20.8065 16.5013 21.1367V29.5001C16.5 29.8294 16.3683 30.1448 16.135 30.3771C15.9017 30.6095 15.5858 30.74 15.2565 30.74Z" fill="#996830"/>
<path d="M58.9494 45.9747H38.3403C38.0102 45.9747 37.6936 45.8435 37.4601 45.6101C37.2267 45.3766 37.0955 45.06 37.0955 44.7299C37.0955 44.3997 37.2267 44.0831 37.4601 43.8497C37.6936 43.6162 38.0102 43.4851 38.3403 43.4851H57.7046V10.9191H16.5013V16.0461C16.5013 16.3762 16.3702 16.6929 16.1367 16.9263C15.9033 17.1598 15.5867 17.2909 15.2565 17.2909C14.9264 17.2909 14.6098 17.1598 14.3763 16.9263C14.1429 16.6929 14.0117 16.3762 14.0117 16.0461V10.6901C14.0126 10.0905 14.2513 9.51579 14.6754 9.092C15.0995 8.6682 15.6744 8.42994 16.274 8.4295H57.9337C58.5329 8.43038 59.1074 8.66883 59.5312 9.09258C59.9549 9.51633 60.1934 10.0908 60.1942 10.6901V44.7299C60.1942 45.06 60.0631 45.3766 59.8296 45.6101C59.5962 45.8435 59.2796 45.9747 58.9494 45.9747Z" fill="#996830"/>
<path d="M20.1768 36.4012H4.37762C4.04748 36.4012 3.73086 36.2701 3.49741 36.0366C3.26396 35.8032 3.13281 35.4865 3.13281 35.1564C3.13281 34.8263 3.26396 34.5096 3.49741 34.2762C3.73086 34.0427 4.04748 33.9116 4.37762 33.9116H20.1768C20.5069 33.9116 20.8235 34.0427 21.057 34.2762C21.2904 34.5096 21.4216 34.8263 21.4216 35.1564C21.4216 35.4865 21.2904 35.8032 21.057 36.0366C20.8235 36.2701 20.5069 36.4012 20.1768 36.4012Z" fill="#996830"/>
<path d="M10.0336 24.1673H1.4245C1.09435 24.1673 0.777732 24.0361 0.544284 23.8027C0.310837 23.5693 0.179688 23.2526 0.179688 22.9225C0.179688 22.5923 0.310837 22.2757 0.544284 22.0423C0.777732 21.8088 1.09435 21.6777 1.4245 21.6777H10.0336C10.3638 21.6777 10.6804 21.8088 10.9138 22.0423C11.1473 22.2757 11.2784 22.5923 11.2784 22.9225C11.2784 23.2526 11.1473 23.5693 10.9138 23.8027C10.6804 24.0361 10.3638 24.1673 10.0336 24.1673Z" fill="#996830"/>
<path d="M23.836 17.2908H8.63934C8.3092 17.2908 7.99258 17.1597 7.75913 16.9262C7.52568 16.6928 7.39453 16.3762 7.39453 16.046C7.39453 15.7159 7.52568 15.3993 7.75913 15.1658C7.99258 14.9324 8.3092 14.8012 8.63934 14.8012H23.836C24.1662 14.8012 24.4828 14.9324 24.7162 15.1658C24.9497 15.3993 25.0808 15.7159 25.0808 16.046C25.0808 16.3762 24.9497 16.6928 24.7162 16.9262C24.4828 17.1597 24.1662 17.2908 23.836 17.2908Z" fill="#996830"/>
</g>
<defs>
<clipPath id="clip0_120_3727">
<rect width="79.668" height="79.668" fill="white" transform="translate(0.332031 0.666016)"/>
</clipPath>
</defs>
</svg>
