<svg width="41" height="41" viewBox="0 0 41 41" fill="none" xmlns="http://www.w3.org/2000/svg">
<g clip-path="url(#clip0_120_3465)">
<path d="M38.4628 14.6741C37.935 13.0397 38.16 10.5864 36.7881 8.69207C35.4055 6.78286 33.0007 6.2402 31.6428 5.24707C30.2992 4.26442 29.0492 2.12606 26.7891 1.38856C24.5928 0.67184 22.3469 1.64442 20.6055 1.64442C18.8643 1.64442 16.6185 0.671606 14.4218 1.38848C12.1621 2.12582 10.9111 4.26465 9.56836 5.24684C8.21195 6.23879 5.80539 6.78293 4.42297 8.69184C3.05227 10.5846 3.275 13.0436 2.74813 14.674C2.24672 16.2258 0.605469 18.0882 0.605469 20.5001C0.605469 22.9135 2.24484 24.7687 2.74813 26.3261C3.27594 27.9605 3.05094 30.4139 4.42281 32.3082C5.80539 34.2175 8.21008 34.76 9.56812 35.7532C10.9115 36.7357 12.1617 38.8743 14.4218 39.6117C16.6166 40.3279 18.8661 39.3558 20.6055 39.3558C22.3424 39.3558 24.5971 40.3269 26.7891 39.6118C29.0489 38.8744 30.2991 36.7361 31.6426 35.7534C32.999 34.7614 35.4055 34.2173 36.788 32.3084C38.1587 30.4156 37.9359 27.9568 38.4628 26.3262C38.9642 24.7743 40.6055 22.9119 40.6055 20.5001C40.6055 18.0869 38.9665 16.2322 38.4628 14.6741ZM35.4893 25.3653C34.8741 27.2696 35.0352 29.4007 34.2571 30.4753C33.4685 31.5641 31.3967 32.0614 29.798 33.2308C28.2169 34.3871 27.1087 36.2202 25.8198 36.6407C24.6004 37.0387 22.6132 36.2307 20.6055 36.2307C18.5832 36.2307 16.6165 37.0404 15.3912 36.6407C14.1025 36.2202 12.9959 34.3884 11.413 33.2307C9.82375 32.0685 7.74016 31.5609 6.95383 30.4751C6.1782 29.4042 6.33328 27.2582 5.7218 25.3654C5.12242 23.5107 3.73047 21.9049 3.73047 20.5001C3.73047 19.094 5.12117 17.4936 5.72164 15.635C6.33687 13.7307 6.1757 11.5994 6.95383 10.525C7.74195 9.43684 9.81531 8.93786 11.413 7.76942C12.9991 6.60934 14.1004 4.78067 15.3911 4.3595C16.6095 3.962 18.6031 4.76957 20.6054 4.76957C22.6314 4.76957 24.5932 3.95926 25.8197 4.3595C27.1083 4.77997 28.2159 6.61247 29.798 7.7695C31.387 8.93176 33.4708 9.43934 34.2571 10.525C35.0329 11.5962 34.877 13.74 35.4891 15.6348V15.6349C36.0885 17.4895 37.4805 19.0954 37.4805 20.5001C37.4805 21.9063 36.0898 23.5066 35.4893 25.3653ZM27.8041 15.4849C28.4144 16.0951 28.4144 17.0844 27.8041 17.6946L19.9834 25.5154C19.3731 26.1256 18.3837 26.1255 17.7736 25.5154L13.4069 21.1486C12.7966 20.5384 12.7966 19.5491 13.4068 18.9389C14.017 18.3288 15.0065 18.3287 15.6165 18.9389L18.8784 22.2008L25.5943 15.485C26.2045 14.8747 27.1939 14.8747 27.8041 15.4849Z" fill="#3A3A3A"/>
</g>
<defs>
<clipPath id="clip0_120_3465">
<rect width="40" height="40" fill="white" transform="translate(0.605469 0.5)"/>
</clipPath>
</defs>
</svg>
