<svg width="75" height="76" viewBox="0 0 75 76" fill="none" xmlns="http://www.w3.org/2000/svg">
<path d="M61.4661 70.888H13.5394C11.7265 70.8879 9.94466 70.4172 8.36819 69.522C6.79172 68.6268 5.47461 67.3378 4.54571 65.7809C3.61681 64.2241 3.10792 62.4528 3.06884 60.6403C3.02976 58.8278 3.46182 57.0362 4.32275 55.4407L28.2861 11.0378C29.1835 9.37512 30.514 7.98616 32.1366 7.01811C33.7591 6.05005 35.6134 5.53894 37.5028 5.53894C39.3922 5.53894 41.2464 6.05005 42.869 7.01811C44.4915 7.98616 45.822 9.37512 46.7194 11.0378L70.6828 55.4407C71.5437 57.0362 71.9758 58.8278 71.9367 60.6403C71.8976 62.4528 71.3887 64.2241 70.4598 65.7809C69.5309 67.3378 68.2138 68.6268 66.6373 69.522C65.0609 70.4172 63.279 70.8879 61.4661 70.888ZM37.5028 7.86549C36.0307 7.85271 34.5834 8.24488 33.3191 8.99913C32.0548 9.75338 31.0223 10.8407 30.3342 12.1422L6.3709 56.5463C5.70134 57.7872 5.36535 59.1806 5.39578 60.5903C5.42621 62 5.82202 63.3776 6.54449 64.5884C7.26696 65.7993 8.29136 66.8019 9.51747 67.4981C10.7436 68.1944 12.1294 68.5604 13.5394 68.5605H61.4661C62.8761 68.5604 64.2619 68.1944 65.4881 67.4981C66.7142 66.8019 67.7386 65.7993 68.461 64.5884C69.1835 63.3776 69.5793 62 69.6097 60.5903C69.6402 59.1806 69.3042 57.7872 68.6346 56.5463L44.6713 12.1422C43.9833 10.8407 42.9507 9.75338 41.6864 8.99913C40.4222 8.24488 38.9749 7.85271 37.5028 7.86549Z" fill="#B58569"/>
<path d="M64.2655 63.6019H11.8981C11.5895 63.6019 11.2935 63.4793 11.0752 63.2611C10.857 63.0428 10.7344 62.7468 10.7344 62.4382C10.7344 62.1296 10.857 61.8336 11.0752 61.6153C11.2935 61.3971 11.5895 61.2745 11.8981 61.2745H64.2655C64.5742 61.2745 64.8702 61.3971 65.0884 61.6153C65.3067 61.8336 65.4293 62.1296 65.4293 62.4382C65.4293 62.7468 65.3067 63.0428 65.0884 63.2611C64.8702 63.4793 64.5742 63.6019 64.2655 63.6019Z" fill="#B58569"/>
<path d="M70.4605 65.7804C71.3973 64.2265 71.9107 62.4543 71.9497 60.6402C71.9887 58.8261 71.5519 57.0335 70.6828 55.4407L46.7194 11.0378C45.822 9.37512 44.4915 7.98616 42.869 7.01811C41.2464 6.05005 39.3922 5.53894 37.5028 5.53894C35.6134 5.53894 33.7591 6.05005 32.1366 7.01811C30.514 7.98616 29.1835 9.37512 28.2861 11.0378L4.32275 55.4407C3.46182 57.0362 3.02976 58.8278 3.06884 60.6403C3.10792 62.4528 3.61681 64.2241 4.54571 65.7809C5.47461 67.3378 6.79172 68.6268 8.36819 69.522C9.94466 70.4172 11.7265 70.8879 13.5394 70.888H61.4661C63.2809 70.8966 65.0662 70.4296 66.6443 69.5335C68.2224 68.6373 69.5382 67.3433 70.4605 65.7804ZM61.4661 68.5605H13.5394C12.1294 68.5604 10.7436 68.1944 9.51747 67.4981C8.29136 66.8019 7.26696 65.7993 6.54449 64.5884C5.82202 63.3776 5.42621 62 5.39578 60.5903C5.36535 59.1806 5.70134 57.7872 6.3709 56.5463L30.3342 12.1422C31.0322 10.849 32.0671 9.76868 33.3291 9.01574C34.591 8.26281 36.0332 7.86528 37.5028 7.86528C38.9723 7.86528 40.4145 8.26281 41.6765 9.01574C42.9385 9.76868 43.9733 10.849 44.6713 12.1422L68.6346 56.5463C69.3042 57.7872 69.6402 59.1806 69.6097 60.5903C69.5793 62 69.1835 63.3776 68.461 64.5884C67.7386 65.7993 66.7142 66.8019 65.4881 67.4981C64.2619 68.1944 62.8761 68.5604 61.4661 68.5605Z" fill="#B58569"/>
<path d="M64.2655 61.2745H53.9957C56.194 58.3891 57.5379 54.9445 57.8744 51.3328L58.4469 45.0883C58.4659 44.8817 58.4294 44.6739 58.3411 44.4862C58.2528 44.2985 58.1159 44.1379 57.9446 44.0209C57.7734 43.9039 57.574 43.8347 57.3671 43.8207C57.1601 43.8066 56.9532 43.8481 56.7677 43.9408L53.6373 45.506L53.3743 42.6049C53.1199 39.8582 52.3094 37.1919 50.9923 34.7682C49.6751 32.3445 47.8787 30.2141 45.7123 28.5064L35.8964 20.7933C35.7056 20.6435 35.4729 20.5571 35.2307 20.546C34.9884 20.535 34.7488 20.5999 34.5452 20.7316C34.3417 20.8634 34.1844 21.0555 34.0953 21.281C34.0062 21.5065 33.9898 21.7543 34.0484 21.9896C34.7393 24.7195 34.7957 27.5714 34.2134 30.3266C33.631 33.0817 32.4253 35.6669 30.6887 37.8837L30.2104 38.4993C29.896 38.905 29.4436 39.1811 28.939 39.2753C28.4345 39.3695 27.9129 39.2751 27.4733 39.0102L24.1346 37.0074C23.9875 36.9191 23.8228 36.8645 23.6521 36.8474C23.4814 36.8303 23.3091 36.8511 23.1474 36.9083C22.9857 36.9656 22.8387 37.0579 22.7168 37.1786C22.595 37.2994 22.5013 37.4456 22.4426 37.6067L19.9988 44.3214C19.252 46.377 19.0111 48.5822 19.2965 50.7505C19.5819 52.9189 20.3852 54.9867 21.6384 56.779L24.791 61.2745H11.8981C11.5895 61.2745 11.2935 61.3971 11.0752 61.6153C10.857 61.8335 10.7344 62.1295 10.7344 62.4382C10.7344 62.7468 10.857 63.0428 11.0752 63.2611C11.2935 63.4793 11.5895 63.6019 11.8981 63.6019H64.2655C64.5742 63.6019 64.8702 63.4793 65.0884 63.2611C65.3067 63.0428 65.4293 62.7468 65.4293 62.4382C65.4293 62.1295 65.3067 61.8335 65.0884 61.6153C64.8702 61.3971 64.5742 61.2745 64.2655 61.2745ZM23.5481 55.4396C22.5091 53.9536 21.8431 52.2394 21.6063 50.4417C21.3695 48.6441 21.5689 46.8159 22.1877 45.1115L24.1463 39.7235L26.2747 41.0036C27.2028 41.5598 28.3022 41.7571 29.3658 41.5583C30.4293 41.3596 31.3833 40.7786 32.0479 39.9248L32.5274 39.3092C35.8139 35.1088 37.3559 29.8038 36.8331 24.4962L44.2682 30.3381C46.1859 31.8499 47.776 33.7359 48.942 35.8815C50.1079 38.0271 50.8252 40.3875 51.0503 42.819L51.4646 47.4157C51.4824 47.604 51.5459 47.785 51.6494 47.9432C51.753 48.1015 51.8935 48.2321 52.0589 48.3237C52.2243 48.4154 52.4095 48.4654 52.5985 48.4694C52.7876 48.4734 52.9748 48.4313 53.1439 48.3467L55.931 46.9502L55.5516 51.1152C55.2023 54.9216 53.5828 58.4999 50.9537 61.2745H47.2101L48.6228 56.5661C49.76 52.794 49.4093 48.7297 47.643 45.2081L43.2022 36.3161C43.0919 36.0941 42.9136 35.9131 42.6932 35.7995C42.4728 35.6859 42.2219 35.6457 41.9771 35.6847C41.7323 35.7236 41.5063 35.8398 41.3321 36.0162C41.1578 36.1925 41.0445 36.42 41.0086 36.6653L40.898 37.4356C40.3184 41.4906 38.7946 45.3527 36.4491 48.7109L33.8482 44.3772C33.7472 44.2091 33.6053 44.0692 33.4357 43.9706C33.2661 43.872 33.0744 43.8178 32.8782 43.8132C32.6821 43.8085 32.488 43.8536 32.314 43.944C32.1399 44.0345 31.9916 44.1675 31.8827 44.3307L30.2081 46.8443C29.186 48.3697 28.6058 50.1481 28.5316 51.9828C28.4575 53.8175 28.8923 55.6369 29.788 57.2398L32.0305 61.2745H27.6316L23.5481 55.4396ZM34.6931 61.2745L31.8222 56.1064C31.1353 54.8764 30.8019 53.4805 30.8587 52.0729C30.9156 50.6652 31.3606 49.3008 32.1445 48.1302L32.7927 47.1574L35.3389 51.4003C35.4355 51.5612 35.5695 51.6963 35.7296 51.7942C35.8897 51.892 36.0711 51.9497 36.2583 51.9624C36.4453 51.9729 36.6322 51.939 36.8037 51.8636C36.9752 51.7881 37.1264 51.6733 37.2451 51.5283C39.8394 48.2831 41.6927 44.5099 42.675 40.473L45.5611 46.245C47.0612 49.2366 47.359 52.6891 46.3931 55.8934L44.7802 61.2745H34.6931Z" fill="#B58569"/>
</svg>
