<svg width="65" height="65" viewBox="0 0 65 65" fill="none" xmlns="http://www.w3.org/2000/svg">
<g clip-path="url(#clip0_186_1977)">
<path d="M61.7641 56.6369C56.0375 60.0723 49.4674 61.8451 42.79 61.7568C36.1127 61.6685 29.5918 59.7225 23.9581 56.1369C22.8662 55.4458 21.7081 54.8653 20.5011 54.4039V51.7609H24.5011C24.686 51.7611 24.8674 51.71 25.0251 51.6133C25.1827 51.5166 25.3104 51.378 25.3941 51.2131C25.4777 51.0481 25.5139 50.8632 25.4987 50.6788C25.4836 50.4945 25.4176 50.318 25.3081 50.1689L21.5521 45.0469C22.7349 44.4767 23.733 43.5844 24.4315 42.4724C25.1301 41.3605 25.5008 40.0741 25.5011 38.7609C25.5026 35.4788 25.7366 32.201 26.2011 28.9519L26.4941 26.9029L24.5141 26.6189L24.2211 28.6689C23.7434 32.0117 23.5028 35.3842 23.5011 38.7609C23.501 39.7617 23.1998 40.7392 22.6366 41.5664C22.0733 42.3936 21.2742 43.0322 20.3431 43.3989L14.3081 35.1689C14.2107 35.0488 14.0877 34.9519 13.948 34.8854C13.8084 34.8189 13.6557 34.7844 13.5011 34.7844C13.3464 34.7844 13.1937 34.8189 13.0541 34.8854C12.9145 34.9519 12.7915 35.0488 12.6941 35.1689L12.3941 35.5759C13.3316 32.2737 14.9975 29.2236 17.2691 26.6499L19.2061 24.4679C20.8897 22.794 22.2246 20.8027 23.1335 18.6093C24.0424 16.416 24.5072 14.0641 24.5011 11.6899C24.5024 10.6483 24.9168 9.64971 25.6533 8.91316C26.3898 8.17662 27.3884 7.76225 28.4301 7.76093H41.5011C42.0315 7.76093 42.5402 7.97164 42.9153 8.34671C43.2904 8.72178 43.5011 9.23049 43.5011 9.76093V13.7609C43.5 14.1104 43.4071 14.4535 43.2315 14.7558C43.056 15.058 42.8041 15.3088 42.5011 15.4829V10.7609C42.5011 9.96528 42.185 9.20221 41.6224 8.63961C41.0598 8.077 40.2967 7.76093 39.5011 7.76093V9.76093C39.7663 9.76093 40.0206 9.86628 40.2082 10.0538C40.3957 10.2414 40.5011 10.4957 40.5011 10.7609V16.7609C40.5011 17.2914 40.2904 17.8001 39.9153 18.1751C39.5402 18.5502 39.0315 18.7609 38.5011 18.7609V12.7609C38.5011 11.9653 38.185 11.2022 37.6224 10.6396C37.0598 10.077 36.2967 9.76093 35.5011 9.76093V11.7609C35.7663 11.7609 36.0206 11.8663 36.2082 12.0538C36.3957 12.2414 36.5011 12.4957 36.5011 12.7609V19.7609C36.5011 20.2914 36.2904 20.8001 35.9153 21.1751C35.5402 21.5502 35.0315 21.7609 34.5011 21.7609H32.5011C32.2358 21.7609 31.9815 21.6556 31.794 21.468C31.6064 21.2805 31.5011 21.0261 31.5011 20.7609V17.7609H34.5011V15.7609H31.5011C30.7054 15.7609 29.9424 15.4449 29.3797 14.8822C28.8171 14.3196 28.5011 13.5566 28.5011 12.7609H26.5011C26.5023 13.7327 26.7868 14.683 27.3196 15.4957C27.8524 16.3084 28.6104 16.9482 29.5011 17.3369V17.3779C28.221 18.8128 27.5097 20.6661 27.5011 22.5889C27.5011 23.4235 27.57 24.2567 27.7071 25.0799C28.2341 28.2501 28.4996 31.4582 28.5011 34.6719V37.4609L26.6691 40.2089L28.3331 41.3189L30.2391 38.4609L31.2851 37.6759C32.9655 36.4252 35.0063 35.7533 37.1011 35.7609C38.5281 35.7626 39.9353 36.0953 41.2121 36.7329L42.9781 37.6179C43.7955 38.1701 44.4883 38.8873 45.0121 39.7232C45.5358 40.5592 45.8788 41.4955 46.0191 42.4719L46.5091 45.9029L48.4891 45.6189L47.9991 42.1889C47.6914 40.065 46.6405 38.1189 45.0331 36.6969C47.1586 34.836 49.8787 33.7952 52.7035 33.7618C55.5283 33.7284 58.2722 34.7048 60.4411 36.5149L62.8581 38.5299L64.1401 36.9919L61.7221 34.9779C59.1141 32.805 55.8003 31.6628 52.4073 31.7675C49.0143 31.8722 45.7772 33.2164 43.3081 35.5459L42.1081 34.9459C40.5296 34.1603 38.7893 33.7545 37.0261 33.7609C34.6987 33.765 32.4259 34.4665 30.5011 35.7749V34.6749C30.5001 31.3513 30.2255 28.0335 29.6801 24.7549C29.5613 24.039 29.5015 23.3146 29.5011 22.5889C29.5022 22.2261 29.5377 21.8641 29.6071 21.5079C29.7723 22.1507 30.146 22.7205 30.6697 23.1282C31.1933 23.5358 31.8374 23.7584 32.5011 23.7609H34.5011C35.3876 23.7601 36.2489 23.4651 36.9498 22.9222C37.6506 22.3793 38.1516 21.6191 38.3741 20.7609H38.5011C39.4056 20.7602 40.2833 20.4535 40.9914 19.8907C41.6995 19.3279 42.1963 18.542 42.4011 17.6609C43.2821 17.4562 44.068 16.9594 44.6308 16.2513C45.1937 15.5432 45.5004 14.6655 45.5011 13.7609V9.76093C45.5011 8.70006 45.0796 7.68264 44.3295 6.9325C43.5793 6.18235 42.5619 5.76093 41.5011 5.76093H28.4301C26.8581 5.76251 25.3509 6.38768 24.2394 7.49924C23.1278 8.6108 22.5027 10.1179 22.5011 11.6899C22.5048 13.8109 22.087 15.9115 21.2721 17.8697C20.4572 19.8279 19.2614 21.6047 17.7541 23.0969L15.7761 25.3219C12.3146 29.2376 10.1673 34.1397 9.63606 39.3389L1.69406 50.1689C1.58457 50.318 1.51856 50.4945 1.50338 50.6788C1.48819 50.8632 1.52443 51.0481 1.60805 51.2131C1.69168 51.378 1.81942 51.5166 1.97707 51.6133C2.13472 51.71 2.31611 51.7611 2.50106 51.7609H6.50106V63.7609H8.50106V50.7609C8.50106 50.4957 8.39571 50.2414 8.20817 50.0538C8.02063 49.8663 7.76628 49.7609 7.50106 49.7609H4.47506L13.5011 37.4519L22.5271 49.7609H19.5011C19.2358 49.7609 18.9815 49.8663 18.794 50.0538C18.6064 50.2414 18.5011 50.4957 18.5011 50.7609V63.7609H20.5011V56.5609C21.3266 56.9194 22.1233 57.3409 22.8841 57.8219C28.8313 61.6067 35.715 63.6607 42.7639 63.7536C49.8127 63.8465 56.7481 61.9747 62.7931 58.3479L64.0161 57.6139L62.9861 55.8999L61.7641 56.6369Z" fill="#B58569"/>
<path d="M42.17 53.1509C40.4494 53.7164 38.6232 53.8851 36.8281 53.6444C35.0331 53.4037 33.3158 52.7598 31.805 51.7609L29.055 49.9279L27.945 51.5919L30.695 53.4249C32.456 54.599 34.462 55.3555 36.5598 55.6366C38.6576 55.9177 40.792 55.716 42.8 55.0469L46.813 53.7089L46.181 51.8089L42.17 53.1509ZM52.3 48.1609L50.7 49.3609C52.8019 52.1569 55.8662 54.0739 59.3 54.7409L59.7 52.7809L59.6 52.7609C56.6832 52.179 54.0838 50.541 52.3 48.1609ZM39.608 26.2129C39.6915 26.3777 39.8191 26.5162 39.9766 26.613C40.134 26.7097 40.3152 26.7609 40.5 26.7609H44.5V31.7609H46.5V25.7609C46.5 25.4957 46.3946 25.2413 46.2071 25.0538C46.0196 24.8663 45.7652 24.7609 45.5 24.7609H42.474L51.5 12.4519L60.526 24.7609H57.5C57.2348 24.7609 56.9804 24.8663 56.7929 25.0538C56.6054 25.2413 56.5 25.4957 56.5 25.7609V29.7609H58.5V26.7609H62.5C62.685 26.7611 62.8663 26.71 63.024 26.6133C63.1816 26.5166 63.3094 26.378 63.393 26.213C63.4766 26.0481 63.5129 25.8631 63.4977 25.6788C63.4825 25.4945 63.4165 25.318 63.307 25.1689L52.307 10.1689C52.2096 10.0488 52.0866 9.95192 51.947 9.88538C51.8074 9.81885 51.6547 9.78433 51.5 9.78433C51.3453 9.78433 51.1926 9.81885 51.053 9.88538C50.9134 9.95192 50.7904 10.0488 50.693 10.1689L39.693 25.1689C39.5837 25.318 39.5179 25.4946 39.5029 25.6789C39.4879 25.8632 39.5243 26.048 39.608 26.2129ZM5.5 18.7609C6.03043 18.7609 6.53914 18.9716 6.91421 19.3467C7.28929 19.7218 7.5 20.2305 7.5 20.7609C7.5 21.0261 7.60536 21.2805 7.79289 21.468C7.98043 21.6555 8.23478 21.7609 8.5 21.7609C8.76522 21.7609 9.01957 21.6555 9.20711 21.468C9.39464 21.2805 9.5 21.0261 9.5 20.7609C9.5 20.2305 9.71071 19.7218 10.0858 19.3467C10.4609 18.9716 10.9696 18.7609 11.5 18.7609C11.7652 18.7609 12.0196 18.6555 12.2071 18.468C12.3946 18.2805 12.5 18.0261 12.5 17.7609C12.5 17.4957 12.3946 17.2413 12.2071 17.0538C12.0196 16.8663 11.7652 16.7609 11.5 16.7609C10.9696 16.7609 10.4609 16.5502 10.0858 16.1751C9.71071 15.8 9.5 15.2913 9.5 14.7609C9.5 14.4957 9.39464 14.2413 9.20711 14.0538C9.01957 13.8663 8.76522 13.7609 8.5 13.7609C8.23478 13.7609 7.98043 13.8663 7.79289 14.0538C7.60536 14.2413 7.5 14.4957 7.5 14.7609C7.5 15.2913 7.28929 15.8 6.91421 16.1751C6.53914 16.5502 6.03043 16.7609 5.5 16.7609C5.23478 16.7609 4.98043 16.8663 4.79289 17.0538C4.60536 17.2413 4.5 17.4957 4.5 17.7609C4.5 18.0261 4.60536 18.2805 4.79289 18.468C4.98043 18.6555 5.23478 18.7609 5.5 18.7609ZM8.5 17.4039C8.61087 17.5308 8.73013 17.65 8.857 17.7609C8.73013 17.8718 8.61087 17.991 8.5 18.1179C8.38913 17.991 8.26987 17.8718 8.143 17.7609C8.26987 17.65 8.38913 17.5308 8.5 17.4039ZM12.184 7.7109C12.9671 7.97397 13.6786 8.41475 14.263 8.99871C14.8473 9.58267 15.2885 10.294 15.552 11.0769C15.6178 11.277 15.745 11.4512 15.9156 11.5747C16.0862 11.6982 16.2914 11.7647 16.502 11.7647C16.7126 11.7647 16.9178 11.6982 17.0884 11.5747C17.259 11.4512 17.3862 11.277 17.452 11.0769C17.7158 10.2937 18.157 9.58218 18.7412 8.99776C19.3255 8.41333 20.0369 7.97189 20.82 7.7079C21.0201 7.64214 21.1943 7.5149 21.3178 7.34431C21.4413 7.17372 21.5077 6.9685 21.5077 6.7579C21.5077 6.5473 21.4413 6.34208 21.3178 6.17149C21.1943 6.0009 21.0201 5.87366 20.82 5.8079C20.0369 5.54483 19.3254 5.10405 18.741 4.52009C18.1567 3.93613 17.7155 3.22483 17.452 2.4419C17.3862 2.24183 17.259 2.06763 17.0884 1.94413C16.9178 1.82064 16.7126 1.75415 16.502 1.75415C16.2914 1.75415 16.0862 1.82064 15.9156 1.94413C15.745 2.06763 15.6178 2.24183 15.552 2.4419C15.2882 3.22505 14.847 3.93663 14.2628 4.52105C13.6785 5.10547 12.9671 5.54691 12.184 5.8109C11.9839 5.87666 11.8097 6.0039 11.6862 6.17449C11.5627 6.34508 11.4963 6.5503 11.4963 6.7609C11.4963 6.9715 11.5627 7.17672 11.6862 7.34731C11.8097 7.5179 11.9839 7.64514 12.184 7.7109ZM16.5 4.9609C16.9915 5.66037 17.6005 6.26938 18.3 6.7609C17.6005 7.25242 16.9915 7.86143 16.5 8.5609C16.0087 7.86126 15.3996 7.25222 14.7 6.7609C15.3996 6.26958 16.0087 5.66054 16.5 4.9609Z" fill="#B58569"/>
</g>
<defs>
<clipPath id="clip0_186_1977">
<rect width="64" height="64" fill="white" transform="translate(0.5 0.760925)"/>
</clipPath>
</defs>
</svg>
