<svg width="75" height="75" viewBox="0 0 75 75" fill="none" xmlns="http://www.w3.org/2000/svg">
<path d="M37.5 47.6394C34.2366 47.6394 31.0465 46.6717 28.3331 44.8587C25.6197 43.0456 23.5048 40.4687 22.256 37.4537C21.0071 34.4387 20.6804 31.1211 21.3171 27.9205C21.9537 24.7198 23.5252 21.7797 25.8327 19.4722C28.1403 17.1646 31.0803 15.5931 34.281 14.9565C37.4817 14.3198 40.7993 14.6466 43.8143 15.8954C46.8293 17.1443 49.4062 19.2591 51.2193 21.9725C53.0323 24.6859 54 27.876 54 31.1394C53.9952 35.5141 52.2553 39.7081 49.162 42.8014C46.0687 45.8948 41.8746 47.6347 37.5 47.6394ZM37.5 17.6394C34.83 17.6394 32.2199 18.4312 29.9998 19.9146C27.7797 21.398 26.0494 23.5064 25.0276 25.9732C24.0058 28.44 23.7385 31.1544 24.2594 33.7732C24.7803 36.3919 26.0661 38.7974 27.9541 40.6854C29.8421 42.5734 32.2475 43.8591 34.8663 44.38C37.485 44.9009 40.1994 44.6336 42.6662 43.6118C45.133 42.59 47.2414 40.8597 48.7248 38.6396C50.2082 36.4196 51 33.8095 51 31.1394C51 27.559 49.5777 24.1252 47.0459 21.5935C44.5142 19.0618 41.0804 17.6394 37.5 17.6394ZM37.5 52.3194L37.41 52.4394C37.436 52.42 37.4676 52.4094 37.5 52.4094C37.5325 52.4094 37.564 52.42 37.59 52.4394L37.5 52.3194Z" fill="#B58569"/>
<path d="M59.5453 26.5503C58.8149 26.0127 58.1938 25.3407 57.7153 24.5703C57.6422 23.6198 57.7438 22.664 58.0153 21.7503C58.3578 20.8944 58.5136 19.9752 58.4722 19.0543C58.4308 18.1334 58.1932 17.2319 57.7753 16.4103C57.1178 15.7534 56.3289 15.2428 55.4604 14.9119C54.5919 14.5811 53.6632 14.4374 52.7353 14.4903C51.7979 14.4998 50.8685 14.316 50.0053 13.9503C49.3888 13.2397 48.9197 12.4137 48.6253 11.5203C47.9053 9.84026 47.0953 7.92026 45.2353 7.32026C44.336 7.17116 43.4151 7.21722 42.5352 7.45533C41.6552 7.69343 40.8367 8.11801 40.1353 8.70026C39.3433 9.26453 38.4453 9.66253 37.4953 9.87025C36.5453 9.66253 35.6473 9.26453 34.8553 8.70026C34.1539 8.11801 33.3354 7.69343 32.4555 7.45533C31.5755 7.21722 30.6546 7.17116 29.7553 7.32026C27.8953 7.92026 27.0853 9.84026 26.3653 11.5203C26.0709 12.4137 25.6018 13.2397 24.9853 13.9503C24.1221 14.316 23.1928 14.4998 22.2553 14.4903C21.3274 14.4374 20.3988 14.5811 19.5302 14.9119C18.6617 15.2428 17.8729 15.7534 17.2153 16.4103C16.7974 17.2319 16.5598 18.1334 16.5185 19.0543C16.4771 19.9752 16.6328 20.8944 16.9753 21.7503C17.2468 22.664 17.3485 23.6198 17.2753 24.5703C16.7968 25.3407 16.1757 26.0127 15.4453 26.5503C14.6455 27.0556 13.9637 27.727 13.4461 28.519C12.9285 29.3109 12.5872 30.2049 12.4453 31.1403C12.5872 32.0757 12.9285 32.9696 13.4461 33.7616C13.9637 34.5535 14.6455 35.2249 15.4453 35.7303C16.1757 36.2678 16.7968 36.9398 17.2753 37.7103C17.3485 38.6607 17.2468 39.6165 16.9753 40.5303C16.6328 41.3861 16.4771 42.3053 16.5185 43.2262C16.5598 44.1471 16.7974 45.0486 17.2153 45.8703C17.8473 46.5192 18.6103 47.026 19.4534 47.3571C20.2966 47.6882 21.2006 47.8358 22.1053 47.7903H22.2553C23.1928 47.7807 24.1221 47.9645 24.9853 48.3303C25.0898 48.4045 25.181 48.4958 25.2553 48.6003C25.7153 49.2704 26.0882 49.9962 26.3653 50.7603C27.0853 52.4403 27.8953 54.3603 29.7553 54.9603C30.3668 55.1537 31.0182 55.1848 31.6453 55.0503C32.7916 54.7478 33.8775 54.2506 34.8553 53.5803C35.6277 53.0463 36.4923 52.6598 37.4053 52.4403L37.4953 52.3203L37.5853 52.4403C38.4983 52.6598 39.3629 53.0463 40.1353 53.5803C41.1199 54.2386 42.2036 54.7349 43.3453 55.0503C43.6211 55.1114 43.9028 55.1416 44.1853 55.1403C44.5427 55.1365 44.8971 55.0757 45.2353 54.9603C47.0953 54.3603 47.9053 52.4403 48.6253 50.7603C48.9024 49.9962 49.2754 49.2704 49.7353 48.6003C49.8096 48.4958 49.9008 48.4045 50.0053 48.3303C50.8685 47.9645 51.7979 47.7807 52.7353 47.7903H52.8853C53.79 47.8358 54.694 47.6882 55.5372 47.3571C56.3803 47.026 57.1433 46.5192 57.7753 45.8703C58.1932 45.0486 58.4308 44.1471 58.4722 43.2262C58.5136 42.3053 58.3578 41.3861 58.0153 40.5303C57.7438 39.6165 57.6422 38.6607 57.7153 37.7103C58.1938 36.9398 58.8149 36.2678 59.5453 35.7303C60.3451 35.2249 61.027 34.5535 61.5446 33.7616C62.0622 32.9696 62.4035 32.0757 62.5453 31.1403C62.4035 30.2049 62.0622 29.3109 61.5446 28.519C61.027 27.727 60.3451 27.0556 59.5453 26.5503ZM57.5953 33.4503C56.413 34.3059 55.4725 35.4532 54.8653 36.7803C54.5573 38.2459 54.6401 39.7667 55.1053 41.1903C55.3453 42.2403 55.6753 43.6503 55.3453 44.1003C55.0153 44.5503 53.5453 44.7003 52.4653 44.7903C51.5421 44.845 50.6272 44.9958 49.7353 45.2403C49.7053 45.2403 49.6753 45.2703 49.6453 45.2703C49.1371 45.3971 48.6582 45.6212 48.2353 45.9303C47.1358 46.9073 46.3176 48.1606 45.8653 49.5603C45.4453 50.5803 44.8753 51.9303 44.3053 52.1103C43.8253 52.2603 42.5653 51.5403 41.6653 51.0003C40.8597 50.4876 40.0056 50.0555 39.1153 49.7103C39.0553 49.7103 39.0253 49.6803 38.9953 49.6803C38.8841 49.6224 38.7607 49.5916 38.6353 49.5903C38.6053 49.5603 38.6053 49.5603 38.5753 49.5603C37.8692 49.3603 37.1214 49.3603 36.4153 49.5603C36.3853 49.5603 36.3853 49.5603 36.3553 49.5903C36.2299 49.5916 36.1066 49.6224 35.9953 49.6803C35.9653 49.6803 35.9353 49.7103 35.8753 49.7103C34.985 50.0555 34.1309 50.4876 33.3253 51.0003C32.4253 51.5403 31.1653 52.2903 30.6853 52.1103C30.1153 51.9303 29.5453 50.5803 29.1253 49.5603C28.673 48.1606 27.8548 46.9073 26.7553 45.9303C26.3946 45.6599 25.9881 45.4566 25.5553 45.3303C25.3961 45.249 25.2231 45.1982 25.0453 45.1803C24.2187 44.975 23.3753 44.8445 22.5253 44.7903C21.4453 44.7003 19.9753 44.5503 19.6453 44.1003C19.3153 43.6503 19.6453 42.2403 19.8853 41.1903C20.3506 39.7667 20.4333 38.2459 20.1253 36.7803C19.5181 35.4532 18.5776 34.3059 17.3953 33.4503C16.5253 32.7003 15.4453 31.7403 15.4453 31.1403C15.4453 30.5403 16.5253 29.5803 17.3953 28.8003C18.5826 27.9626 19.525 26.8235 20.1253 25.5003C20.4333 24.0346 20.3506 22.5138 19.8853 21.0903C19.6453 20.0403 19.3153 18.6303 19.6453 18.1803C19.9753 17.7303 21.4453 17.5803 22.5253 17.4903C24.0117 17.4943 25.4722 17.1007 26.7553 16.3503C27.8548 15.3732 28.673 14.1199 29.1253 12.7203C29.5453 11.7003 30.1153 10.3503 30.6853 10.1703C30.7303 10.143 30.7833 10.1324 30.8353 10.1403C31.727 10.3676 32.5705 10.7538 33.3253 11.2803C34.5518 12.1668 35.9899 12.7151 37.4953 12.8703C39.0007 12.7151 40.4388 12.1668 41.6653 11.2803C42.5653 10.7403 43.8253 10.0203 44.3053 10.1703C44.8753 10.3503 45.4453 11.7003 45.8653 12.7203C46.3176 14.1199 47.1358 15.3732 48.2353 16.3503C49.5184 17.1007 50.9789 17.4943 52.4653 17.4903C53.5453 17.5803 55.0153 17.7303 55.3453 18.1803C55.6753 18.6303 55.3453 20.0403 55.1053 21.0903C54.6401 22.5138 54.5573 24.0346 54.8653 25.5003C55.4656 26.8235 56.408 27.9626 57.5953 28.8003C58.4653 29.5803 59.5453 30.5403 59.5453 31.1403C59.5453 31.7403 58.4653 32.7003 57.5953 33.4503Z" fill="#B58569"/>
<path d="M37.4155 52.4397L26.1055 67.2597C25.9646 67.4448 25.7832 67.5951 25.5752 67.6991C25.3672 67.8032 25.138 67.8581 24.9055 67.8597C24.7736 67.8544 24.6428 67.8343 24.5155 67.7997C24.2301 67.7263 23.9726 67.5706 23.7752 67.3518C23.5778 67.1331 23.4492 66.8611 23.4055 66.5697L22.4755 59.6397L15.5755 60.5697C15.282 60.6052 14.9846 60.5543 14.7197 60.4232C14.4548 60.2921 14.2339 60.0865 14.0842 59.8316C13.9344 59.5768 13.8624 59.2837 13.8768 58.9885C13.8913 58.6933 13.9916 58.4087 14.1655 58.1697L22.1155 47.7897H22.2655C23.2029 47.7801 24.1323 47.9639 24.9955 48.3297C25.0999 48.404 25.1912 48.4952 25.2655 48.5997L18.7555 57.1197L23.5555 56.4597C23.9521 56.4113 24.352 56.5187 24.671 56.7593C24.99 56.9999 25.2031 57.355 25.2655 57.7497L25.8955 62.5797L31.6555 55.0497C32.8018 54.7473 33.8876 54.25 34.8655 53.5797C35.6379 53.0457 36.5024 52.6592 37.4155 52.4397ZM60.9355 59.8197C60.7886 60.0799 60.5673 60.2903 60.3001 60.4239C60.0328 60.5575 59.7317 60.6083 59.4355 60.5697L52.5355 59.6397L51.6055 66.5697C51.5617 66.8611 51.4331 67.1331 51.2357 67.3518C51.0383 67.5706 50.7808 67.7263 50.4955 67.7997C50.3681 67.8343 50.2373 67.8544 50.1055 67.8597C49.8729 67.8581 49.6438 67.8032 49.4357 67.6991C49.2277 67.5951 49.0463 67.4448 48.9055 67.2597L37.5955 52.4397C38.5085 52.6592 39.373 53.0457 40.1455 53.5797C41.13 54.2381 42.2138 54.7344 43.3555 55.0497L49.1155 62.5797L49.7455 57.7497C49.8078 57.355 50.0209 56.9999 50.3399 56.7593C50.6589 56.5187 51.0588 56.4113 51.4555 56.4597L56.2555 57.1197L49.7455 48.5997C49.8197 48.4952 49.911 48.404 50.0155 48.3297C50.8787 47.9639 51.808 47.7801 52.7455 47.7897H52.8955L60.8455 58.1697C61.0204 58.4057 61.1222 58.6878 61.1382 58.9812C61.1542 59.2745 61.0837 59.5661 60.9355 59.8197ZM42.3535 40.1727C42.1107 40.1728 41.8716 40.113 41.6575 39.9987L37.5055 37.8177L33.3535 39.9987C33.106 40.1283 32.8273 40.1862 32.5488 40.1659C32.2702 40.1456 32.0028 40.048 31.7768 39.884C31.5507 39.7199 31.3749 39.4961 31.2692 39.2375C31.1635 38.979 31.1321 38.6961 31.1785 38.4207L31.9705 33.7977L28.6135 30.5247C28.4129 30.3294 28.271 30.0818 28.2038 29.81C28.1367 29.5382 28.1469 29.2531 28.2334 28.9868C28.3198 28.7206 28.4791 28.4838 28.6931 28.3033C28.9071 28.1229 29.1674 28.0059 29.4445 27.9657L34.0855 27.2997L36.1615 23.0997C36.2985 22.863 36.4954 22.6665 36.7323 22.5299C36.9693 22.3933 37.238 22.3214 37.5115 22.3214C37.785 22.3214 38.0536 22.3933 38.2906 22.5299C38.5275 22.6665 38.7244 22.863 38.8615 23.0997L40.9375 27.2997L45.5785 27.9747C45.8555 28.0149 46.1158 28.1319 46.3298 28.3123C46.5438 28.4928 46.7031 28.7296 46.7896 28.9958C46.876 29.2621 46.8862 29.5472 46.8191 29.819C46.7519 30.0908 46.61 30.3384 46.4095 30.5337L43.0525 33.8067L43.8445 38.4297C43.8811 38.6449 43.8704 38.8656 43.813 39.0762C43.7555 39.2869 43.6528 39.4824 43.512 39.6493C43.3711 39.8161 43.1956 39.9502 42.9975 40.0422C42.7995 40.1341 42.5838 40.1817 42.3655 40.1817L42.3535 40.1727ZM37.5055 34.6257C37.7479 34.6256 37.9867 34.6843 38.2015 34.7967L40.3615 35.9307L39.9505 33.5307C39.9088 33.291 39.9261 33.0447 40.0009 32.8132C40.0756 32.5817 40.2055 32.3718 40.3795 32.2017L42.1285 30.5007L39.7285 30.1497C39.4879 30.1144 39.2595 30.0211 39.063 29.8779C38.8665 29.7347 38.7078 29.5459 38.6005 29.3277L37.5205 27.1407L36.4405 29.3277C36.3331 29.5459 36.1744 29.7347 35.9779 29.8779C35.7814 30.0211 35.553 30.1144 35.3125 30.1497L32.9125 30.5007L34.6615 32.2017C34.8354 32.3718 34.9653 32.5817 35.0401 32.8132C35.1148 33.0447 35.1321 33.291 35.0905 33.5307L34.6795 35.9307L36.8395 34.7967C37.0452 34.6889 37.2732 34.6303 37.5055 34.6257Z" fill="#B58569"/>
</svg>
