<svg width="69" height="68" viewBox="0 0 69 68" fill="none" xmlns="http://www.w3.org/2000/svg">
<path d="M54.3742 35.8116H49.9628L45.3236 29.626C45.0729 29.2923 44.6114 29.2028 44.2541 29.4168L39.1323 32.4901C39.0631 31.9546 38.9508 31.4467 38.8092 30.9681L45.182 25.8666C45.3741 25.7119 45.4864 25.4784 45.4864 25.2309V19.0567L48.5035 16.0396C49.2458 15.2973 48.0949 14.1464 47.3527 14.8887L44.0971 18.1443C43.944 18.2965 43.8586 18.504 43.8586 18.7197V24.8403L38.1597 29.4014C37.9537 29.0302 37.7218 28.6965 37.467 28.4051C39.9909 27.4765 39.3162 24.3137 38.2557 22.4873L40.4663 19.1714C40.555 19.038 40.603 18.8801 40.603 18.7197V14.1733L41.9923 12.784C42.7346 12.0417 41.5837 10.8908 40.8415 11.6331L39.2137 13.2609C39.0606 13.4131 38.9752 13.6206 38.9752 13.8363V18.4731L37.2017 21.1329C35.8132 19.8104 33.9689 19.8226 32.5893 21.1517L30.8036 18.4731V13.8363C30.8036 13.6206 30.7182 13.4131 30.5652 13.2609L28.9374 11.6331C28.1951 10.8908 27.0442 12.0417 27.7865 12.784L29.1758 14.1733V18.7197C29.1758 18.8801 29.2238 19.038 29.3126 19.1714L31.5394 22.5125C30.4895 24.3397 29.8318 27.4806 32.3435 28.4051C32.0871 28.6998 31.8519 29.0367 31.6444 29.4128L25.9202 24.8386V18.7197C25.9202 18.504 25.8348 18.2965 25.6818 18.1443L22.4262 14.8887C21.6839 14.1464 20.533 15.2973 21.2753 16.0396L24.2924 19.0567V25.2309C24.2924 25.4784 24.4056 25.7119 24.5985 25.8666L30.999 30.9811C30.8573 31.4605 30.745 31.9684 30.6767 32.5048L25.5247 29.416C25.1666 29.2028 24.7051 29.2923 24.4552 29.626L19.816 35.8116H15.4046C14.3547 35.8116 14.3547 37.4394 15.4046 37.4394H20.2229C20.4785 37.4394 20.7202 37.319 20.874 37.1139L25.3171 31.1895L30.6042 34.3588C30.6238 34.8455 30.6742 35.3152 30.7532 35.7661L26.4314 37.4972C26.1229 37.6209 25.9202 37.9205 25.9202 38.2525V45.9561L21.399 48.97C20.5265 49.5503 21.4251 50.9079 22.3016 50.3243L27.185 47.0687C27.4113 46.9173 27.5472 46.6634 27.5472 46.3915V38.8035L31.174 37.3507C31.4963 38.2257 31.9358 38.9745 32.4656 39.5377C29.2841 40.8936 28.8942 44.8191 29.1302 47.837C29.3826 51.0609 30.2176 55.0913 32.5771 57.4825C33.4455 58.364 34.6517 58.8849 35.8669 58.4193C37.1854 57.9147 38.0644 56.5905 38.6822 55.3884C40.3246 52.1906 41.1157 48.06 40.6128 44.4903C40.3214 42.4181 39.3585 40.3963 37.3433 39.5377C37.8699 38.9777 38.3078 38.2346 38.6293 37.367L42.2308 38.8043V46.3923C42.2308 46.6642 42.3667 46.9181 42.593 47.0695L47.4764 50.3251C48.3529 50.9087 49.2523 49.5511 48.379 48.9708L43.8586 45.9569V38.2533C43.8586 37.9205 43.6559 37.6209 43.3466 37.4972L39.0566 35.784C39.138 35.3233 39.1884 34.8407 39.2088 34.3425L44.4625 31.1895L48.9048 37.1139C49.0578 37.319 49.2995 37.4394 49.5559 37.4394H54.3742C55.4241 37.4394 55.4241 35.8116 54.3742 35.8116ZM34.9057 21.7287C36.514 21.7287 37.5085 24.2868 37.5875 25.5777C37.6827 27.1403 36.1103 27.1037 34.9057 27.1037C33.7011 27.1037 32.1287 27.1395 32.2239 25.5777C32.3028 24.2868 33.2974 21.7287 34.9057 21.7287ZM39.1111 46.3923C39.1111 48.5817 38.7164 50.798 37.9953 52.8653C37.5321 54.196 36.8509 56.0436 35.5438 56.7867C34.3994 57.4378 33.4268 56.1355 32.9092 55.2736C31.882 53.5661 31.3172 51.5541 30.9843 49.604C30.5041 46.7887 30.0793 41.5854 33.8289 40.7992C35.1726 40.5176 36.7703 40.7268 37.7649 41.7466C38.9272 42.939 39.1111 44.8126 39.1111 46.3923C39.1111 51.3368 39.1111 42.5589 39.1111 46.3923ZM32.2174 33.9022C32.2174 32.3257 32.6959 29.1686 34.6583 28.7584C36.8289 28.305 37.5484 32.2362 37.5891 33.6076C37.6371 35.1914 37.183 38.8312 35.0286 39.0599C34.187 39.1494 33.518 38.3608 33.1346 37.7129C32.4648 36.5775 32.2174 35.2069 32.2174 33.9022Z" fill="#B58569"/>
<circle cx="34.4995" cy="33.7769" r="32.2769" stroke="#B58569" stroke-width="3"/>
<rect x="56.6562" y="58.7358" width="3" height="65.5405" transform="rotate(139.047 56.6562 58.7358)" fill="#B58569"/>
</svg>
