<svg width="41" height="41" viewBox="0 0 41 41" fill="none" xmlns="http://www.w3.org/2000/svg">
<g clip-path="url(#clip0_120_3444)">
<path d="M33.4037 2.84375C32.5502 2.84375 31.7501 3.07414 31.06 3.47437V1.67188C31.06 1.02469 30.5353 0.5 29.8881 0.5H11.1381C10.4909 0.5 9.96617 1.02469 9.96617 1.67188V3.48867C9.27063 3.07953 8.46133 2.84375 7.59766 2.84375C5.01297 2.84375 2.91016 4.94656 2.91016 7.53125C2.91016 9.50273 3.49437 11.4077 4.59961 13.0402C6.48117 15.8193 8.80141 16.5405 10.7213 17.3084C11.8284 20.0653 14.067 22.2502 16.8596 23.2846L15.9955 28.7812H15.8256C13.8871 28.7812 12.31 30.3584 12.31 32.2969V38.1562H11.1381C10.4909 38.1562 9.96625 38.6809 9.96625 39.3281C9.96625 39.9753 10.4909 40.5 11.1381 40.5H29.8881C30.5353 40.5 31.06 39.9753 31.06 39.3281C31.06 38.6809 30.5353 38.1562 29.8881 38.1562H28.7162V32.2969C28.7162 30.3584 27.1391 28.7812 25.2006 28.7812H25.0308L24.1667 23.2847C26.9634 22.2487 29.2045 20.0591 30.3099 17.2966C32.1236 16.5711 34.501 15.8478 36.4019 13.0402C37.5071 11.4077 38.0913 9.50266 38.0913 7.53125C38.0913 4.94656 35.9884 2.84375 33.4037 2.84375ZM9.9575 14.4787C7.10016 13.3357 5.25391 10.6087 5.25391 7.53125C5.25391 6.23891 6.30531 5.1875 7.59766 5.1875C8.89 5.1875 9.94141 6.23891 9.94141 7.53125C9.94141 7.61367 9.95008 7.69398 9.96625 7.77156V13.3906C9.96625 13.7673 9.98648 14.1392 10.0252 14.5058L9.9575 14.4787ZM26.3725 38.1562H14.6537V35.8125H26.3725V38.1562ZM25.2006 31.125C25.8468 31.125 26.3725 31.6507 26.3725 32.2969V33.4688H14.6537V32.2969C14.6537 31.6507 15.1795 31.125 15.8256 31.125C16.4614 31.125 23.7096 31.125 25.2006 31.125ZM18.368 28.7812L19.1434 23.8487C19.5919 23.9071 20.049 23.9375 20.5131 23.9375C20.9773 23.9375 21.4344 23.907 21.8828 23.8487L22.6583 28.7812H18.368ZM28.7162 13.3906C28.7162 17.9138 25.0363 21.5938 20.5131 21.5938C15.9899 21.5938 12.31 17.9138 12.31 13.3906V7.53125H28.7162V13.3906ZM28.7162 5.1875H12.31V2.84375H28.7162V5.1875ZM31.0438 14.4787L31.0022 14.4953C31.0402 14.1322 31.0599 13.7637 31.0599 13.3906V7.53125C31.06 6.23891 32.1114 5.1875 33.4037 5.1875C34.6961 5.1875 35.7475 6.23891 35.7475 7.53125C35.7475 10.6087 33.9012 13.3358 31.0438 14.4787Z" fill="#3A3A3A"/>
</g>
<defs>
<clipPath id="clip0_120_3444">
<rect width="40" height="40" fill="white" transform="translate(0.5 0.5)"/>
</clipPath>
</defs>
</svg>
