<svg width="73" height="74" viewBox="0 0 73 74" fill="none" xmlns="http://www.w3.org/2000/svg">
<path fill-rule="evenodd" clip-rule="evenodd" d="M18.64 38.8029C18.8484 38.7376 19.1799 38.6448 19.5107 38.606C22.0315 38.3079 24.0839 39.517 25.6777 41.0705C26.1286 41.51 26.851 41.5009 27.2905 41.05C27.7301 40.5998 27.7209 39.8767 27.27 39.4371C25.2055 37.4243 22.5083 35.9537 19.2431 36.3407C17.4797 36.5491 16.7017 37.2099 16.4242 37.8243C16.1162 38.5071 16.2645 39.4516 17.0135 40.4956C17.6895 41.4386 18.8765 42.5982 19.9799 43.878C20.9312 44.9806 21.8391 46.1699 22.119 47.4055C23.0474 51.5065 23.1311 55.3139 28.2107 61.4071C30.6227 64.2997 31.0827 68.4394 31.1459 70.8963C31.1618 71.5252 31.6858 72.0233 32.3154 72.0073C32.945 71.9906 33.4423 71.4667 33.4264 70.8378C33.3541 68.0113 32.7382 63.2747 29.9634 59.9463C25.2382 54.279 25.2078 50.7156 24.3439 46.9021C23.7767 44.3989 21.265 41.9404 19.6012 40.0622C19.256 39.6729 18.9556 39.3132 18.7435 38.9855C18.7085 38.9307 18.672 38.8645 18.64 38.8029ZM51.4733 70.815C51.4224 67.7718 51.5836 62.2344 53.4215 59.4756C57.0312 54.06 56.7384 47.1044 56.7384 47.1044C56.7111 46.4756 56.178 45.9874 55.5491 46.014C54.9203 46.0414 54.4321 46.5744 54.4595 47.2033C54.4595 47.2033 54.734 53.3931 51.5235 58.2111C49.4689 61.293 49.1358 67.4524 49.1921 70.853C49.2027 71.4826 49.7221 71.9853 50.3517 71.9746C50.9813 71.964 51.484 71.4446 51.4733 70.815ZM37.9181 47.3614V18.3637C37.9181 16.0026 36.0011 14.0856 33.64 14.0856C31.2782 14.0856 29.3612 16.0026 29.3612 18.3637V47.3614C29.3612 47.9911 29.8722 48.5021 30.5018 48.5021C31.1314 48.5021 31.6424 47.9911 31.6424 47.3614V18.3637C31.6424 17.2619 32.5374 16.3669 33.64 16.3669C34.7419 16.3669 35.6369 17.2619 35.6369 18.3637V47.3614C35.6369 47.9911 36.1479 48.5021 36.7775 48.5021C37.4071 48.5021 37.9181 47.9911 37.9181 47.3614ZM44.1939 47.3614V29.935C44.1939 27.5739 42.2768 25.6569 39.9157 25.6569C39.2861 25.6569 38.7751 26.1679 38.7751 26.7975C38.7751 27.4271 39.2861 27.9381 39.9157 27.9381C41.0176 27.9381 41.9126 28.8331 41.9126 29.935V47.3614C41.9126 47.9911 42.4236 48.5021 43.0532 48.5021C43.6829 48.5021 44.1939 47.9911 44.1939 47.3614ZM50.4696 47.3614V34.3408C50.4696 31.9797 48.5526 30.0627 46.1907 30.0627C45.5618 30.0627 45.0501 30.5737 45.0501 31.2033C45.0501 31.833 45.5618 32.344 46.1907 32.344C47.2933 32.344 48.1883 33.239 48.1883 34.3408V47.3614C48.1883 47.9911 48.6993 48.5021 49.3289 48.5021C49.9586 48.5021 50.4696 47.9911 50.4696 47.3614Z" fill="#996830"/>
<path fill-rule="evenodd" clip-rule="evenodd" d="M56.7003 47.3667L56.7421 38.2912C56.7421 35.9301 54.8251 34.0131 52.4632 34.0131C51.8336 34.0131 51.3226 34.5241 51.3226 35.1537C51.3226 35.7833 51.8336 36.2943 52.4632 36.2943C53.5651 36.2943 54.4601 37.1886 54.4608 38.2904L54.419 47.3561C54.416 47.9857 54.9247 48.499 55.5543 48.502C56.1839 48.5051 56.6972 47.9964 56.7003 47.3667ZM32.4962 3.1333V8.11023C32.4962 8.73985 33.0072 9.25085 33.6368 9.25085C34.2665 9.25085 34.7775 8.73985 34.7775 8.11023V3.1333C34.7775 2.50368 34.2665 1.99268 33.6368 1.99268C33.0072 1.99268 32.4962 2.50368 32.4962 3.1333ZM19.4688 18.4412H24.4457C25.0753 18.4412 25.5863 17.9302 25.5863 17.3006C25.5863 16.671 25.0753 16.16 24.4457 16.16H19.4688C18.8391 16.16 18.3281 16.671 18.3281 17.3006C18.3281 17.9302 18.8391 18.4412 19.4688 18.4412ZM42.8272 18.4412H47.8042C48.4338 18.4412 48.9448 17.9302 48.9448 17.3006C48.9448 16.671 48.4338 16.16 47.8042 16.16H42.8272C42.1976 16.16 41.6866 16.671 41.6866 17.3006C41.6866 17.9302 42.1976 18.4412 42.8272 18.4412ZM22.8123 8.08894L26.3315 11.6081C26.7764 12.0537 27.4987 12.0537 27.9444 11.6081C28.3892 11.1633 28.3892 10.4409 27.9444 9.9953L24.4251 6.47609C23.9795 6.03125 23.2571 6.03125 22.8123 6.47609C22.3667 6.9217 22.3667 7.64409 22.8123 8.08894ZM42.8485 6.47609L39.3293 9.9953C38.8837 10.4409 38.8837 11.1633 39.3293 11.6081C39.7742 12.0537 40.4965 12.0537 40.9422 11.6081L44.4614 8.08894C44.9062 7.64409 44.9062 6.9217 44.4614 6.47609C44.0158 6.03125 43.2934 6.03125 42.8485 6.47609Z" fill="#996830"/>
</svg>
