<svg width="75" height="71" viewBox="0 0 75 71" fill="none" xmlns="http://www.w3.org/2000/svg">
<path d="M16.0879 33.966C15.7114 33.9661 15.3497 33.8193 15.0797 33.5569C12.7204 31.2596 11.4024 28.1814 11.3817 24.8883C11.361 21.5952 12.6295 18.5087 14.9516 16.1907C19.6248 11.3771 27.31 11.2036 32.074 15.8271C32.2102 15.9595 32.319 16.1174 32.3942 16.2919C32.4693 16.4663 32.5094 16.6538 32.5121 16.8438C32.5148 17.0337 32.48 17.2223 32.4098 17.3988C32.3396 17.5753 32.2354 17.7362 32.103 17.8724C31.9706 18.0086 31.8127 18.1174 31.6382 18.1925C31.4638 18.2677 31.2762 18.3078 31.0863 18.3104C30.8964 18.3131 30.7078 18.2784 30.5313 18.2082C30.3548 18.138 30.1939 18.0337 30.0577 17.9013C26.4423 14.3892 20.5916 14.5421 17.0134 18.2236C15.2243 20.0044 14.2616 22.3637 14.2781 24.8718C14.2947 27.3798 15.2946 29.7308 17.1002 31.4827C17.3069 31.6836 17.4488 31.9415 17.5078 32.2236C17.5669 32.5056 17.5403 32.7989 17.4315 33.0657C17.3227 33.3326 17.1367 33.5608 16.8973 33.7212C16.6579 33.8816 16.3761 33.9669 16.0879 33.966ZM23.6988 9.66652C23.3152 9.66652 22.9474 9.51416 22.6762 9.24295C22.405 8.97175 22.2526 8.60391 22.2526 8.22037V4.01414C22.2526 3.6306 22.405 3.26277 22.6762 2.99156C22.9474 2.72035 23.3152 2.56799 23.6988 2.56799C24.0823 2.56799 24.4501 2.72035 24.7214 2.99156C24.9926 3.26277 25.1449 3.6306 25.1449 4.01414V8.22037C25.1449 8.60391 24.9926 8.97175 24.7214 9.24295C24.4501 9.51416 24.0823 9.66652 23.6988 9.66652ZM6.72924 26.6071H2.40318C2.01964 26.6071 1.6518 26.4548 1.3806 26.1836C1.10939 25.9124 0.957031 25.5445 0.957031 25.161C0.957031 24.7774 1.10939 24.4096 1.3806 24.1384C1.6518 23.8672 2.01964 23.7148 2.40318 23.7148H6.72924C7.11278 23.7148 7.48061 23.8672 7.75182 24.1384C8.02302 24.4096 8.17538 24.7774 8.17538 25.161C8.17538 25.5445 8.02302 25.9124 7.75182 26.1836C7.48061 26.4548 7.11278 26.6071 6.72924 26.6071ZM11.642 14.6867C11.4476 14.6873 11.2551 14.6484 11.0761 14.5724C10.8971 14.4964 10.7354 14.3849 10.6008 14.2446L7.67956 11.2077C7.43125 10.9285 7.30067 10.5639 7.3152 10.1905C7.32973 9.81711 7.48824 9.46382 7.7575 9.20471C8.02677 8.94559 8.38588 8.80077 8.75957 8.80059C9.13326 8.80042 9.49251 8.9449 9.76202 9.20376L12.6832 12.2407C12.8809 12.4444 13.014 12.702 13.0659 12.9811C13.1178 13.2601 13.0862 13.5483 12.975 13.8095C12.8638 14.0707 12.678 14.2933 12.4409 14.4493C12.2038 14.6054 11.9259 14.6879 11.642 14.6867ZM8.72079 41.5603C8.4345 41.5603 8.15465 41.4754 7.91669 41.3162C7.67872 41.1571 7.49335 40.9309 7.38406 40.6663C7.27477 40.4017 7.24647 40.1106 7.30275 39.8299C7.35904 39.5492 7.49737 39.2915 7.70022 39.0895L10.6214 36.1683C10.7535 36.0244 10.9133 35.9088 11.0912 35.8284C11.2691 35.748 11.4614 35.7044 11.6566 35.7003C11.8518 35.6963 12.0458 35.7318 12.2269 35.8047C12.4081 35.8776 12.5725 35.9864 12.7104 36.1246C12.8484 36.2628 12.9569 36.4275 13.0294 36.6088C13.102 36.79 13.1371 36.9841 13.1326 37.1793C13.1281 37.3745 13.0842 37.5667 13.0034 37.7445C12.9226 37.9222 12.8067 38.0818 12.6626 38.2135L9.74136 41.1347C9.60831 41.2703 9.44945 41.3778 9.27416 41.4508C9.09887 41.5239 8.91071 41.5612 8.72079 41.5603ZM35.6274 14.6867C35.3412 14.6867 35.0613 14.6018 34.8233 14.4426C34.5854 14.2835 34.4 14.0573 34.2907 13.7927C34.1814 13.5281 34.1531 13.237 34.2094 12.9563C34.2657 12.6756 34.404 12.4179 34.6069 12.2159L37.6479 9.17896C37.78 9.03513 37.9397 8.91952 38.1176 8.8391C38.2956 8.75868 38.4879 8.71512 38.6831 8.71104C38.8783 8.70697 39.0723 8.74246 39.2534 8.81538C39.4345 8.8883 39.599 8.99714 39.7369 9.13533C39.8748 9.27353 39.9833 9.43822 40.0559 9.61948C40.1284 9.80074 40.1635 9.99481 40.1591 10.19C40.1546 10.3852 40.1107 10.5775 40.0299 10.7552C39.9491 10.9329 39.8332 11.0925 39.6891 11.2242L36.648 14.2611C36.515 14.3967 36.3561 14.5042 36.1808 14.5773C36.0055 14.6503 35.8174 14.6876 35.6274 14.6867Z" fill="#B58569"/>
<path d="M39.7348 50.32H22.538C22.3099 50.3173 22.0859 50.2591 21.8852 50.1506C16.2039 49.4358 11.9688 44.7834 11.9688 39.1764C11.9688 33.0324 17.0261 28.0328 23.2446 28.0328H23.6826C24.009 19.86 30.715 13.311 38.9167 13.311C45.4203 13.311 51.2379 17.5544 53.3906 23.872C53.4524 24.0516 53.478 24.2416 53.4661 24.4311C53.4543 24.6207 53.4051 24.806 53.3214 24.9764C53.2377 25.1469 53.1211 25.2991 52.9784 25.4244C52.8358 25.5497 52.6697 25.6456 52.4899 25.7066C52.3104 25.77 52.1201 25.797 51.93 25.7859C51.74 25.7749 51.554 25.7259 51.3832 25.642C51.2123 25.5581 51.0599 25.4409 50.9349 25.2974C50.8099 25.1538 50.7149 24.9866 50.6553 24.8058C48.8993 19.6617 44.1848 16.2074 38.9167 16.2074C32.1074 16.2074 26.5625 21.7937 26.5625 28.6609V29.5988C26.5621 29.8125 26.5146 30.0235 26.4232 30.2167C26.3318 30.4099 26.1988 30.5805 26.0338 30.7164C25.8687 30.8522 25.6757 30.9498 25.4686 31.0023C25.2614 31.0549 25.0452 31.0609 24.8354 31.0201C24.3099 30.9333 23.7764 30.9042 23.2446 30.9334C18.621 30.9334 14.8611 34.6355 14.8611 39.1847C14.8611 43.4198 18.1707 46.9195 22.5546 47.3245C22.7043 47.3375 22.8509 47.3752 22.9884 47.436H54.7169C56.0763 47.3451 57.4729 46.8576 58.5513 46.0766C58.7047 45.9588 58.8802 45.8729 59.0674 45.8241C59.2545 45.7753 59.4496 45.7645 59.641 45.7925C59.8324 45.8204 60.0163 45.8864 60.1817 45.9867C60.3472 46.0869 60.4908 46.2193 60.6041 46.3761C60.7175 46.5328 60.7982 46.7107 60.8416 46.8992C60.885 47.0878 60.8901 47.2831 60.8566 47.4736C60.8232 47.6641 60.7519 47.846 60.6469 48.0084C60.5419 48.1709 60.4053 48.3106 60.2454 48.4194C58.6525 49.5557 56.7697 50.2163 54.8161 50.3242L39.7348 50.32ZM24.9924 60.7199C24.6088 60.7199 24.241 60.5676 23.9698 60.2964C23.6986 60.0252 23.5462 59.6573 23.5462 59.2738V53.8982C23.5462 53.5147 23.6986 53.1469 23.9698 52.8757C24.241 52.6045 24.6088 52.4521 24.9924 52.4521C25.3759 52.4521 25.7437 52.6045 26.0149 52.8757C26.2862 53.1469 26.4385 53.5147 26.4385 53.8982V59.2738C26.4374 59.657 26.2847 60.0242 26.0137 60.2952C25.7428 60.5661 25.3756 60.7188 24.9924 60.7199ZM30.8431 71C30.6532 71 30.4651 70.9626 30.2897 70.8899C30.1142 70.8172 29.9548 70.7107 29.8205 70.5764C29.6862 70.4421 29.5797 70.2827 29.507 70.1073C29.4343 69.9318 29.3969 69.7438 29.3969 69.5538V64.2981C29.3969 64.1082 29.4343 63.9202 29.507 63.7447C29.5797 63.5693 29.6862 63.4098 29.8205 63.2755C29.9548 63.1413 30.1142 63.0347 30.2897 62.9621C30.4651 62.8894 30.6532 62.852 30.8431 62.852C31.033 62.852 31.221 62.8894 31.3965 62.9621C31.5719 63.0347 31.7314 63.1413 31.8657 63.2755C31.9999 63.4098 32.1065 63.5693 32.1791 63.7447C32.2518 63.9202 32.2892 64.1082 32.2892 64.2981V69.5538C32.2892 69.7438 32.2518 69.9318 32.1791 70.1073C32.1065 70.2827 31.9999 70.4421 31.8657 70.5764C31.7314 70.7107 31.5719 70.8172 31.3965 70.8899C31.221 70.9626 31.033 71 30.8431 71ZM36.6938 60.7199C36.3102 60.7199 35.9424 60.5676 35.6712 60.2964C35.4 60.0252 35.2476 59.6573 35.2476 59.2738V53.8982C35.2476 53.5147 35.4 53.1469 35.6712 52.8757C35.9424 52.6045 36.3102 52.4521 36.6938 52.4521C37.0773 52.4521 37.4452 52.6045 37.7164 52.8757C37.9876 53.1469 38.1399 53.5147 38.1399 53.8982V59.2738C38.1388 59.657 37.9861 60.0242 37.7152 60.2952C37.4442 60.5661 37.077 60.7188 36.6938 60.7199ZM42.6561 71C42.4661 71 42.2781 70.9626 42.1026 70.8899C41.9272 70.8172 41.7678 70.7107 41.6335 70.5764C41.4992 70.4421 41.3927 70.2827 41.32 70.1073C41.2473 69.9318 41.2099 69.7438 41.2099 69.5538V64.2981C41.2099 63.9146 41.3623 63.5467 41.6335 63.2755C41.9047 63.0043 42.2725 62.852 42.6561 62.852C43.0396 62.852 43.4074 63.0043 43.6786 63.2755C43.9498 63.5467 44.1022 63.9146 44.1022 64.2981V69.5538C44.1022 69.7438 44.0648 69.9318 43.9921 70.1073C43.9194 70.2827 43.8129 70.4421 43.6786 70.5764C43.5444 70.7107 43.3849 70.8172 43.2095 70.8899C43.034 70.9626 42.846 71 42.6561 71ZM48.5068 60.7199C48.1232 60.7199 47.7554 60.5676 47.4842 60.2964C47.213 60.0252 47.0606 59.6573 47.0606 59.2738V53.8982C47.0606 53.5147 47.213 53.1469 47.4842 52.8757C47.7554 52.6045 48.1232 52.4521 48.5068 52.4521C48.8903 52.4521 49.2581 52.6045 49.5294 52.8757C49.8006 53.1469 49.9529 53.5147 49.9529 53.8982V59.2738C49.9529 59.6573 49.8006 60.0252 49.5294 60.2964C49.2581 60.5676 48.8903 60.7199 48.5068 60.7199ZM54.3575 71C54.1676 71 53.9795 70.9626 53.8041 70.8899C53.6286 70.8172 53.4692 70.7107 53.3349 70.5764C53.2006 70.4421 53.0941 70.2827 53.0214 70.1073C52.9487 69.9318 52.9113 69.7438 52.9113 69.5538V64.2981C52.9113 63.9146 53.0637 63.5467 53.3349 63.2755C53.6061 63.0043 53.9739 62.852 54.3575 62.852C54.741 62.852 55.1088 63.0043 55.3801 63.2755C55.6513 63.5467 55.8036 63.9146 55.8036 64.2981V69.5538C55.8036 69.7438 55.7662 69.9318 55.6935 70.1073C55.6209 70.2827 55.5143 70.4421 55.3801 70.5764C55.2458 70.7107 55.0863 70.8172 54.9109 70.8899C54.7354 70.9626 54.5474 71 54.3575 71Z" fill="#B58569"/>
<path d="M58.9278 48.8055C52.5152 48.8055 47.3008 43.5456 47.3008 37.0793C47.3008 34.0548 48.5403 31.2038 50.8129 28.9767V7.87119C50.8129 4.23102 54.358 0 58.932 0C63.4357 0 66.9312 4.23102 66.9312 7.87119V28.9767C69.2038 31.2038 70.4433 34.0548 70.4433 37.0793C70.4351 43.5456 65.2744 48.8055 58.9278 48.8055ZM58.9278 2.8923C56.1099 2.8923 53.6969 5.62759 53.6969 7.87119V29.6048C53.6974 29.8091 53.6545 30.0113 53.5712 30.1978C53.4879 30.3844 53.366 30.5513 53.2135 30.6873C51.8334 31.9103 50.189 34.0134 50.189 37.0834C50.189 41.9549 54.1101 45.9173 58.9278 45.9173C63.6795 45.9173 67.5469 41.9549 67.5469 37.0834C67.5469 34.0134 65.9024 31.9145 64.5224 30.6873C64.3697 30.5514 64.2476 30.3846 64.1642 30.198C64.0809 30.0114 64.0382 29.8092 64.0389 29.6048V7.87119C64.0348 5.62759 61.6796 2.8923 58.9278 2.8923Z" fill="#B58569"/>
<path d="M58.6844 34.8998C58.4945 34.8998 58.3065 34.8624 58.131 34.7897C57.9556 34.717 57.7961 34.6105 57.6618 34.4762C57.5276 34.3419 57.421 34.1825 57.3484 34.0071C57.2757 33.8316 57.2383 33.6436 57.2383 33.4537V19.0831C57.2383 18.6995 57.3906 18.3317 57.6618 18.0605C57.9331 17.7893 58.3009 17.6369 58.6844 17.6369C59.068 17.6369 59.4358 17.7893 59.707 18.0605C59.9782 18.3317 60.1306 18.6995 60.1306 19.0831V33.4537C60.1306 33.6436 60.0932 33.8316 60.0205 34.0071C59.9478 34.1825 59.8413 34.3419 59.707 34.4762C59.5727 34.6105 59.4133 34.717 59.2378 34.7897C59.0624 34.8624 58.8743 34.8998 58.6844 34.8998Z" fill="#B58569"/>
<path d="M58.7885 42.264C58.1222 42.2635 57.4625 42.1317 56.8472 41.8762C56.2318 41.6207 55.6727 41.2465 55.2019 40.775C54.2512 39.8227 53.7177 38.5317 53.7188 37.186C53.7198 35.8403 54.2555 34.5502 55.2078 33.5994C56.1601 32.6486 57.4511 32.1151 58.7968 32.1162C60.1425 32.1173 61.4326 32.6529 62.3834 33.6052C63.3342 34.5576 63.8677 35.8486 63.8666 37.1942C63.8655 38.5399 63.3299 39.8301 62.3776 40.7808C61.4252 41.7316 60.1342 42.2651 58.7885 42.264ZM58.7885 35.0168C57.611 35.0168 56.6111 36.0125 56.6111 37.1942C56.6111 38.376 57.611 39.3717 58.7885 39.3717C59.9744 39.3717 60.9743 38.376 60.9743 37.1942C60.9743 36.0125 59.9744 35.0168 58.7885 35.0168ZM72.5972 26.6084H65.5772C65.1936 26.6084 64.8258 26.4561 64.5546 26.1849C64.2834 25.9137 64.131 25.5458 64.131 25.1623C64.131 24.7787 64.2834 24.4109 64.5546 24.1397C64.8258 23.8685 65.1936 23.7161 65.5772 23.7161H72.5972C72.9808 23.7161 73.3486 23.8685 73.6198 24.1397C73.891 24.4109 74.0434 24.7787 74.0434 25.1623C74.0434 25.5458 73.891 25.9137 73.6198 26.1849C73.3486 26.4561 72.9808 26.6084 72.5972 26.6084ZM72.5972 20.0636H65.5772C65.1936 20.0636 64.8258 19.9112 64.5546 19.64C64.2834 19.3688 64.131 19.001 64.131 18.6174C64.131 18.2339 64.2834 17.866 64.5546 17.5948C64.8258 17.3236 65.1936 17.1713 65.5772 17.1713H72.5972C72.9808 17.1713 73.3486 17.3236 73.6198 17.5948C73.891 17.866 74.0434 18.2339 74.0434 18.6174C74.0434 19.001 73.891 19.3688 73.6198 19.64C73.3486 19.9112 72.9808 20.0636 72.5972 20.0636ZM72.5972 13.1716H65.5772C65.1936 13.1716 64.8258 13.0193 64.5546 12.7481C64.2834 12.4769 64.131 12.109 64.131 11.7255C64.131 11.3419 64.2834 10.9741 64.5546 10.7029C64.8258 10.4317 65.1936 10.2793 65.5772 10.2793H72.5972C72.9808 10.2793 73.3486 10.4317 73.6198 10.7029C73.891 10.9741 74.0434 11.3419 74.0434 11.7255C74.0434 12.109 73.891 12.4769 73.6198 12.7481C73.3486 13.0193 72.9808 13.1716 72.5972 13.1716Z" fill="#B58569"/>
</svg>
